<svg xmlns="http://www.w3.org/2000/svg" version="1.1" viewBox="0 0 483.7 145.6">
  <path d="M355.2,101.9h-7.5v-23.2h-33.1v23.2h-7.5v-48.5c-.3-14.4,16-15,26.6-14.7,10,.3,21.5,2,21.5,14.5v48.7h0ZM347.7,72.1v-18.8c0-7.9-9-8.7-14.9-8.8-6.6-.2-18.3,0-18.3,9v18.6h33.1,0Z"/>
  <path d="M415.1,57.7h-7.3c-.2-4,.3-8.3-3.6-10.8-4.6-3-18.1-2.8-23.3-1.2s-6.3,4.6-6.5,9.8c-.2,6.1.8,8.7,6.9,10,7.6,1.6,16.4,1.9,23.8,4,10.2,2.9,10.6,10.3,9.9,19.6s-7.8,12.2-16.3,13.1c-7.4.8-21.9.9-27.7-4.2-2-1.8-3.9-5.7-3.9-8.4v-9h7.3c.2,5.7-1.2,12.1,5.3,14.6,5.2,2,19.6,2.2,24.4-.8,3.4-2.1,3.7-6.6,3.6-10.3-.1-4.9-2-7.5-6.8-8.7-7.6-2-16.7-1.9-24.2-4.1-9.8-2.9-10.2-10.1-9.6-19.1.5-7.7,4.8-11,11.9-12.5,7.7-1.6,23.9-1.8,30.7,2.5,5.5,3.4,5.5,9.6,5.3,15.5h0Z"/>
  <path d="M434.7,83.9v18h-7.5v-62.5h28.8c10.4.4,18.6,3.3,19.3,15,.3,4.2.3,10.3,0,14.4-.7,11.2-8.3,14.6-18.4,15.1-7.3.3-14.9-.3-22.2,0h0ZM434.7,78c7.9-.1,15.8.2,23.6-.2,5.1-.7,8.4-3.1,9.3-8.3.6-3.3.6-13.8-.2-16.9-1.6-6.2-7-7.1-12.6-7.3-6.6-.3-13.4.2-20.1,0,0,0,0,32.8,0,32.8Z"/>
  <path d="M229,39.4v46.4c.3,3.5.4,7,3.8,9,3.8,2.3,13.4,2.2,17.4.2s4-6,4.3-9.9v-45.7h7.3v45.9c.3,3.4.3,7.2,3.5,9.3,3.9,2.6,14.2,2.6,18.2.2,3.4-2,3.5-5.5,3.8-9v-46.4h7.3v49.6c-.6,9.1-6.1,12.4-14.5,13.3-7.8.8-17.2.2-21.9-6.9-4.9,7.4-15.3,7.9-23.3,6.7-10.6-1.6-13-6.5-13.3-16.6v-46.1h7.5Z"/>
  <path d="M182.3,38.7c6.6-.3,19.1,0,23.9,5.2,2.8,2.9,3,6.2,3.2,10,.6,10,.6,22.2.2,32.2-.5,13.3-7.9,15.8-20.1,16.3-10.9.5-29,.5-28.6-14.7.5-11.3-.6-23,0-34.2.7-13,10.4-14.4,21.4-14.8h0ZM183,44.6c-7.3.3-14,.9-14.6,9.6-.7,11.2.4,23.4.2,34.7.8,6.4,8,7.4,13.2,7.6,6.6.3,19.5.7,20-8.3,0-11,.8-22.2.2-33.1-.2-3-.6-6-3.2-7.9-3.6-2.7-11.5-2.8-16-2.7h0Z"/>
  <path d="M76.7,0c58.1,3.1,90,70.6,53.9,117.4C91.8,167.6,11.1,147.2,1,84.8-6,41.9,25.8,2.1,69.2,0h7.5ZM134.5,72.8c0-34-27.6-61.6-61.6-61.6S11.2,38.8,11.2,72.8s27.6,61.6,61.6,61.6,61.6-27.6,61.6-61.6Z"/>
  <path d="M99.6,28.2h-.6l-.3.4c.7,1.5,2.5,3.8,2.5,5.6s-1.2,3.7-1.6,4.5c0,.2-.2.4-.4.4-.3-2.3-3-3.5-4.9-2-.6.5-.7,1.4-1,1.7-.2.2-.6.2-.9.3-3.3,2.1-3.2,5.5-1.8,8.8-2.1-.5-4.1-.8-6.2,0l-3-4.7c.3-2.4.6-4.9.5-7.4-.5,0-.6.5-.7.8-.4,1.4-1.1,5.5-.9,6.9,0,.8,1.8,4.5,1.6,4.7l-3.5-1.8c-.4-1.1-2.1-7.7-2.9-8-.4,0-.3.2-.3.4,0,1,1.5,7.9,1.9,8.5.2.3,1.1.7,1.3,1.2-.8-.3-2.6-.6-3.3-1.1-.9-.7-2.3-2.8-3.4-3.8-.5-.4-1.1-.9-1.7-1.2-.5.6,3.6,5.2,4.2,5.9l6,2.9c.3.1.1.9-.1,1-9.7-1.5-19.3-3.5-29-4.5-8.2-.8-19.3-1.4-27.4-.3-3.2.4-4.2.7-1.5,3.2,6.7,6,19.4,11.4,28.3,11.8,4.8.2,5.4-.9,9.2-2.9,3.1-1.6,4.4-1.3,7.8-1.7,4.2-.4,8.4-1,12.6-1.2.3,1.4.8,2.9,1.8,4-.7,0-1.3-.5-2-.7-4.1-1.1-8.8,2.7-11.8,5.2-10.8,9.3-17,19.5-23,32.3-.2.5-2,4.2-1.8,4.3,7.8-3.5,15.9-7.3,22.9-12.2,5.5-3.8,15.9-13.5,18.3-19.6.9-2.4.9-4.3-.3-6.6,1.3.8,2.6,1.5,4.1,1.8l-1.7,16.8c-2,5.6-4.6,6.9-4.2,13.4.5,8.6,5.8,20.8,11.5,27.3,2,2.3,2.7,2.9,3.3-.7,1.1-6.8.7-15.8.2-22.8-.8-11.5-3-22.9-5-34.2,0-.3.8-.5,1-.3.9,1.1,1.8,4.2,2.7,5.7.6.9,2.8,2.6,3.8,3.3.7.5,1.5,1.2,2.3,1.3.2-.2-.9-1.6-1.2-1.8-.9-1-3.1-2.4-3.7-3.4-.6-.8-.8-2.4-1.2-3.4.5.1,1.1,1.3,1.4,1.4.8.4,6.9,1.7,8,1.8.3,0,.8,0,1,0-2.4-1.5-5.4-2-8.1-3l-1.9-3.5,4.9,1.8c2.1-.3,4.4-.4,6.5-1,.4-.1,1.1-.2,1.2-.6-2.5-.5-5,.3-7.5.3l-4.6-2.8c.4-2.1.6-4.2-.2-6.2,3.4,1.2,6.9,1.5,9-2,.2-.2.2-.7.3-.8.2-.2,1.1-.4,1.6-.8,1.6-1.6.5-4.9-1.8-4.9,0-.4,0-.3.2-.4,2.1-1.3,4.5-1.9,6.8-1,.9.3,2.5,1.6,3.1,1.7.3,0,.6,0,.8-.2.1-.5-1.8-1.5-2.3-1.8-.9-.5-2.7-1.3-3.7-1.3-1.4,0-5.3,2-5.7,1.9-1.4-2.1-3.1-3.9-5.2-5.2.3-1.3,1.2-2.6,1.6-4,.9-3-.8-5.1-2.2-7.6h0Z"/>
  <path d="M99.6,28.2c1.4,2.5,3.1,4.6,2.2,7.6-.4,1.3-1.3,2.6-1.6,4,2.2,1.3,3.8,3.1,5.2,5.2.3,0,4.3-2,5.7-1.9,1,0,2.8.8,3.7,1.3.5.2,2.4,1.2,2.3,1.8-.2.3-.4.3-.8.2-.6-.2-2.2-1.4-3.1-1.7-2.3-.9-4.7-.3-6.8,1-.2.1-.3,0-.2.4,2.3,0,3.4,3.3,1.8,4.9-.5.5-1.4.7-1.6.8-.1.1-.2.6-.3.8-2.1,3.5-5.5,3.2-9,2,.8,2,.6,4.1.2,6.2l4.6,2.8c2.5,0,5-.8,7.5-.3-.2.5-.8.5-1.2.6-2.1.5-4.4.6-6.5,1l-4.9-1.8,1.9,3.5c2.7.9,5.7,1.4,8.1,3-.2.2-.7.1-1,0-1.1,0-7.1-1.3-8-1.8-.3-.2-.9-1.3-1.4-1.4.4.9.6,2.6,1.2,3.4.7.9,2.8,2.4,3.7,3.4.2.2,1.3,1.6,1.2,1.8-.8-.2-1.6-.8-2.3-1.3-1-.7-3.2-2.4-3.8-3.3-1-1.4-1.8-4.6-2.7-5.7-.2-.2-.9,0-1,.3,2,11.3,4.2,22.7,5,34.2.5,6.9.9,15.9-.2,22.8-.6,3.5-1.3,2.9-3.3.7-5.7-6.5-11-18.7-11.5-27.3-.4-6.6,2.2-7.8,4.2-13.4l1.7-16.8c-1.5-.3-2.8-1-4.1-1.8,1.1,2.3,1.2,4.2.3,6.6-2.4,6.1-12.8,15.9-18.3,19.6-7.1,4.9-15.1,8.7-22.9,12.2-.1-.2,1.6-3.8,1.8-4.3,6-12.8,12.2-23,23-32.3,2.9-2.5,7.7-6.3,11.8-5.2.7.2,1.3.7,2,.7-1-1.1-1.5-2.5-1.8-4-4.2.3-8.4.8-12.6,1.2-3.3.3-4.7,0-7.8,1.7-3.8,2-4.3,3.1-9.2,2.9-9-.4-21.7-5.8-28.3-11.8-2.8-2.5-1.8-2.8,1.5-3.2,8.2-1.1,19.2-.5,27.4.3,9.8.9,19.4,2.9,29,4.5.2,0,.4-.8.1-1l-6-2.9c-.6-.7-4.7-5.3-4.2-5.9.6.3,1.2.8,1.7,1.2,1.1,1,2.4,3.1,3.4,3.8.7.5,2.4.8,3.3,1.1-.2-.5-1.1-.9-1.3-1.2-.4-.7-1.9-7.5-1.9-8.5,0-.3-.1-.5.3-.4.7.3,2.5,6.9,2.9,8l3.5,1.8c.2-.2-1.5-3.9-1.6-4.7-.1-1.4.5-5.5.9-6.9,0-.3.1-.9.7-.8,0,2.5-.1,4.9-.5,7.4l3,4.7c2.1-.8,4.1-.5,6.2,0-1.4-3.3-1.5-6.8,1.8-8.8.3-.2.7-.2.9-.3.3-.3.4-1.2,1-1.7,1.9-1.6,4.6-.4,4.9,2,.2,0,.3-.2.4-.4.4-.8,1.6-3.7,1.6-4.5,0-1.7-1.8-4-2.5-5.5l.3-.4h.6,0Z"/>
  <path d="M482.6,116.3l-.2.5c-.4.8-.8,1.5-1.4,2.2-5.4,6.1-15.4,3.2-16.9-5.1-1.9-10.2,9.9-16.5,16.7-9.4.6.7,1.2,1.5,1.6,2.3l.2.4c.7,1.4,1.1,3,1.1,4.6h0c0,1.6-.4,3.1-1,4.5h0ZM473,103c-10.9,1.2-9.4,19.1,2.2,17.6,10.1-1.3,8.6-18.8-2.2-17.6Z"/>
  <path d="M469.8,106.1c0-.2.4-.4.6-.4.7-.1,2.8,0,3.5,0,2.4.3,4.2,1.8,3.8,4.3-.1.9-.9,1.2-1.2,2,.4.6,1.1,1.2,1.2,2,.1.6.2,2.7.2,3.3,0,.2,0,.4-.2.5h-1.7c-.6-.5-.2-2.6-.4-3.3-.2-1.6-2.4-1.5-3.6-1.3l-.2,4.4-1.8.2c-.1,0-.3-.4-.3-.4v-11.2h0ZM472.2,107.8h-.2c0,.1,0,3.1,0,3.1,4.7,1.1,4.9-3.9.1-3.1h0Z"/>
</svg>