<svg xmlns="http://www.w3.org/2000/svg" viewBox="0 0 511.66 342.63" fill="currentColor">
  <g>
    <path d="M397.58,0c2.03,1.9,4.61.63,7.41,2.19,13.42,7.48,6.43,32.9,2.47,44.4-16.24,47.19-52.47,97.87-88.35,131.91l-3.99,32.72,113.3-2.47c8.06-10.04,14.71-21.27,23.34-30.88,9.83-10.94,24.49-23.92,39.57-26.04,10.06-1.41,15.44.47,20.32,9.69v9.04c-12.8,29.68-51.51,35.82-79.95,41.47l-5.94,11.59-3.36-.56,3.4-10.71-111.76,3.43c-4.14,33.87-11.65,71.33-29.66,100.8-4.75,7.77-16.23,23.49-25.43,25.4-27.87,5.77-29.91-28.4-27.28-47.62,5.87-42.96,36.46-76.56,79.91-82.17l2.4-29.21c-9.72,6.06-29.97,25.92-40.35,27.99-11.39,2.28-8.85-12.18-15.8-14.23-13.28-3.92-40.44,27.09-49.45,35.91l-2.33-3.44c3.26-12.2,9.76-24.45,13.37-36.32,2.12-6.97,3.14-10,5.13-15.21l8.1-24.08c-9.01,8.26-14.8,20.95-21.91,30.6-11.92,16.18-28.78,38.76-45.31,51.82-9.61,7.6-22.26,12.28-18.62-5.62l-10.71,6.79-.58-3.41-4.5,1.13-.55-4.5c-4.38,2.69-16.77,14.7-21.44,13.52-2.15-1.5-1.35-1.4-.93-3.09,1.76-6.92,7.67-13.82,9.63-20.91.27-.96,1.94-2.9-.82-1.95-6.36,2.19-23.16,22.83-27.5,28.98-3.93,5.56-7.43,14.28-11.48,19.02-1.36,1.58-3.17,2-3.4-.03-.17-1.53,9.35-24.69,10.72-28.8,6.71-20.14,15.43-43.88,20.65-64.06.29-1.12,1.15-3.96-.86-3.68-1.12,3.2-2.5,7.09-4.09,10.03-11.5,21.26-25.14,42.18-41.65,61.13-4.6,5.28-15.96,18.31-20.89,22.03-1.87,1.41-4.44,3.93-6.85,2.28l-1.64-2.87c-2.73,1.52-8.51,8.2-11.28,7.9-3.59-.39,1.39-4.64.54-5.64l-3.19-.97-4.16,4.32-2.25-5.61c-4.47,2.43-3.46,9.57-9.61,7.9v-2.26c3.6-8,10.33-11.19,15.26-18.06,2.6-.62,1.9,2.45,1.62,3.88-.68,3.43-3.62,4.99-3.32,8.54l12.99-10.16,2.77,1.68-3.35,7.35c3.43.2,4.05-4.02,7.32-4.53,3.67-.57.02,4.53,2.82,4.53.07-3.59,3.58-4.25,5.27-6.03,27.64-28.95,55.77-68.19,71.75-105.01,4.75-10.95,22.96-80.34,28.74-82.02,8.93.21,2.86,14.92,1.22,20.49-5.51,18.69-15.42,34.26-22.58,51.97-14.03,34.69-21.92,73.25-35.81,108.19,6.45-6.57,11.13-14.81,17.48-21.48,2.7-2.83,14.67-15.09,18.56-12.33,4.29,5.03-10.71,23.85-8.93,25.9,4.89-2.23,16.19-13.54,20.91-13.47,1.28.02,8.41,2.1,7.34,4.43,2.94-2.5,4.75-4.17,9.01-3.39-1.84,16,6.69,11.18,15.22,4.5,16.27-12.74,37-40.57,49.68-57.65,5.65-7.61,16.05-20.66,20.02-28.52,11.89-23.53,18.1-55.99,29.72-80.97,1.98-4.26,17.42-33.05,18.72-14.17,1.55,22.54-28.5,67.51-40.96,86.8l-31.39,88.89c8.37-9.81,33.86-34.82,46.88-33.99,6.35.4,9.83,10.15,12.58,14.86,3.63.87,12.64-5.27,16.1-7.51,4.23-2.75,28.39-20.94,29.24-23.84,3.47-44.19,7.64-87.6,30.53-126.47,11.56-19.63,28.62-40.81,49.89-50.07h2.26ZM406.22,7.17c-12.09-12.34-38.26,16.41-45.25,25.68-30.83,40.87-38.43,89.92-41.31,139.96,30.17-28.11,56.7-64.84,74.74-102.02,6.28-12.94,23.41-51.8,11.83-63.63ZM243.98,129.89c5.36-6.4,10.73-15.43,14.87-22.96,7.21-13.13,21.01-40.12,21.17-54.55.1-9.05-6.54,2.34-8.24,5.37-12.02,21.51-19.22,48.98-27.8,72.15ZM143.44,73.42c-3.23-.61-1.81.88-2.55,2.47s-1.38,3.24-1.98,4.85c-3.78,10.1-7.14,21.71-9,32.2l10.91-25.78,2.63-13.74ZM433.72,207.81c21.75-3.65,47.75-9.06,64.92-23.73,11.72-10.02,15.81-30.53-4.46-29.4-23.72,1.33-48.95,34.6-60.47,53.13ZM310.6,215.74c-49.53,7.48-80.97,50.46-76.86,100.01.07.9,2.15,10.43,2.42,11.1,2.75,6.78,10.66,14.17,18.46,13.08,20.78-2.92,37.2-43.73,42.75-61.21,6.44-20.27,11.1-41.81,13.24-62.98Z"/>
  </g>
</svg>