<svg xmlns="http://www.w3.org/2000/svg" viewBox="0 0 595.2 841.92" fill="currentColor">
    <g>
      <path d="M501.26,289.36c0,.99.81,1.8,1.8,1.8s1.8-.81,1.8-1.8-.81-1.8-1.8-1.8-1.8.81-1.8,1.8Z"/>
      <path d="M487.56,259.09c0,.99.81,1.8,1.8,1.8s1.8-.81,1.8-1.8-.81-1.8-1.8-1.8-1.8.81-1.8,1.8Z"/>
      <path d="M477.71,237.72c0,.99.81,1.8,1.8,1.8s1.8-.81,1.8-1.8-.81-1.8-1.8-1.8-1.8.81-1.8,1.8Z"/>
      <path d="M476.03,174.07c0,.99.81,1.8,1.8,1.8s1.8-.81,1.8-1.8-.81-1.8-1.8-1.8-1.8.81-1.8,1.8Z"/>
      <path d="M302.32,91.09c-.99,0-1.8-.81-1.8-1.8s.81-1.8,1.8-1.8,1.8.81,1.8,1.8-.81,1.8-1.8,1.8Z"/>
      <path d="M332.56,104.77c-.99,0-1.8-.81-1.8-1.8s.81-1.8,1.8-1.8,1.8.81,1.8,1.8-.81,1.8-1.8,1.8Z"/>
      <path d="M353.92,114.61c-.99,0-1.8-.81-1.8-1.8s.81-1.8,1.8-1.8,1.8.81,1.8,1.8-.81,1.8-1.8,1.8Z"/>
      <path d="M417.52,116.29c-.99,0-1.8-.81-1.8-1.8s.81-1.8,1.8-1.8,1.8.81,1.8,1.8-.81,1.8-1.8,1.8Z"/>
      <path d="M457.12,120.13c-.99,0-1.8-.81-1.8-1.8s.81-1.8,1.8-1.8,1.8.81,1.8,1.8-.81,1.8-1.8,1.8Z"/>
      <path d="M472.55,135.09c0,.99.81,1.8,1.8,1.8s1.8-.81,1.8-1.8-.81-1.8-1.8-1.8-1.8.81-1.8,1.8Z"/>
      <path d="M462.47,113.25c0,.99.81,1.8,1.8,1.8s1.8-.81,1.8-1.8-.81-1.8-1.8-1.8-1.8.81-1.8,1.8Z"/>
      <path d="M475.91,127.65c0,.99.81,1.8,1.8,1.8s1.8-.81,1.8-1.8-.81-1.8-1.8-1.8-1.8.81-1.8,1.8Z"/>
      <path d="M455.75,107.73c0,.99.81,1.8,1.8,1.8s1.8-.81,1.8-1.8-.81-1.8-1.8-1.8-1.8.81-1.8,1.8Z"/>
      <path d="M412.07,146.13c0,.99.81,1.8,1.8,1.8s1.8-.81,1.8-1.8-.81-1.8-1.8-1.8-1.8.81-1.8,1.8Z"/>
      <path d="M374.87,206.61c0,.99.81,1.8,1.8,1.8s1.8-.81,1.8-1.8-.81-1.8-1.8-1.8-1.8.81-1.8,1.8Z"/>
      <path d="M367.67,223.41c0,.99.81,1.8,1.8,1.8s1.8-.81,1.8-1.8-.81-1.8-1.8-1.8-1.8.81-1.8,1.8Z"/>
      <path d="M430.31,138.69c0,.99.81,1.8,1.8,1.8s1.8-.81,1.8-1.8-.81-1.8-1.8-1.8-1.8.81-1.8,1.8Z"/>
      <path d="M433.91,175.41c0,.99.81,1.8,1.8,1.8s1.8-.81,1.8-1.8-.81-1.8-1.8-1.8-1.8.81-1.8,1.8Z"/>
      <path d="M421.19,197.25c0,.99.81,1.8,1.8,1.8s1.8-.81,1.8-1.8-.81-1.8-1.8-1.8-1.8.81-1.8,1.8Z"/>
      <path d="M516.47,157.41c0,.99.81,1.8,1.8,1.8s1.8-.81,1.8-1.8-.81-1.8-1.8-1.8-1.8.81-1.8,1.8Z"/>
      <path d="M528.47,145.17c0,.99.81,1.8,1.8,1.8s1.8-.81,1.8-1.8-.81-1.8-1.8-1.8-1.8.81-1.8,1.8Z"/>
      <path d="M536.15,128.37c0,.99.81,1.8,1.8,1.8s1.8-.81,1.8-1.8-.81-1.8-1.8-1.8-1.8.81-1.8,1.8Z"/>
      <path d="M503.27,123.09c0,.99.81,1.8,1.8,1.8s1.8-.81,1.8-1.8-.81-1.8-1.8-1.8-1.8.81-1.8,1.8Z"/>
      <path d="M502.55,59.25c0,.99.81,1.8,1.8,1.8s1.8-.81,1.8-1.8-.81-1.8-1.8-1.8-1.8.81-1.8,1.8Z"/>
      <path d="M508.07,34.29c0,.99.81,1.8,1.8,1.8s1.8-.81,1.8-1.8-.81-1.8-1.8-1.8-1.8.81-1.8,1.8Z"/>
      <path d="M557.99,82.05c0,.99.81,1.8,1.8,1.8s1.8-.81,1.8-1.8-.81-1.8-1.8-1.8-1.8.81-1.8,1.8Z"/>
      <path d="M508.79,80.85c0,.99.81,1.8,1.8,1.8s1.8-.81,1.8-1.8-.81-1.8-1.8-1.8-1.8.81-1.8,1.8Z"/>
      <path d="M519.35,71.01c0,.99.81,1.8,1.8,1.8s1.8-.81,1.8-1.8-.81-1.8-1.8-1.8-1.8.81-1.8,1.8Z"/>
      <path d="M482.63,133.65c0,.99.81,1.8,1.8,1.8s1.8-.81,1.8-1.8-.81-1.8-1.8-1.8-1.8.81-1.8,1.8Z"/>
      <path d="M530.87,88.77c0,.99.81,1.8,1.8,1.8s1.8-.81,1.8-1.8-.81-1.8-1.8-1.8-1.8.81-1.8,1.8Z"/>
      <path d="M467.99,88.77c0,.99.81,1.8,1.8,1.8s1.8-.81,1.8-1.8-.81-1.8-1.8-1.8-1.8.81-1.8,1.8Z"/>
      <path d="M433.91,75.81c0,.99.81,1.8,1.8,1.8s1.8-.81,1.8-1.8-.81-1.8-1.8-1.8-1.8.81-1.8,1.8Z"/>
      <path d="M446.15,62.13c0,.99.81,1.8,1.8,1.8s1.8-.81,1.8-1.8-.81-1.8-1.8-1.8-1.8.81-1.8,1.8Z"/>
      <path d="M461.75,56.85c0,.99.81,1.8,1.8,1.8s1.8-.81,1.8-1.8-.81-1.8-1.8-1.8-1.8.81-1.8,1.8Z"/>
    </g>
    <g>
      <path d="M479.25,238.48c-.08-.87-4.29-16.11-7.09-26.13l-.04-.14,11.01-38.1-3.38-13.51.02-.1,4.06-26.24.99.15-4.05,26.14,3.39,13.58-.04.13-10.97,37.95c1.27,4.54,7.07,25.29,7.09,26.23l-1,.04Z"/>
      <polygon points="489.29 259.67 483.59 248.28 474.4 242.15 466.02 210.51 477.75 172.79 478.7 173.08 467.06 210.53 475.27 241.53 484.37 247.59 490.19 259.22 489.29 259.67"/>
      <polygon points="503.61 288.14 502.62 287.98 510.4 239.81 491.64 130.39 500.31 126.85 500.68 127.78 492.76 131.01 511.41 239.81 503.61 288.14"/>
      <polygon points="477.69 128.17 477.44 127.2 495.3 122.67 496.9 116.41 496.99 116.43 499.98 105.03 486.74 91.8 469.23 96 464.64 113.73 463.67 113.48 468.41 95.16 487.05 90.7 501.09 104.73 496.2 123.38 496.15 123.37 496.12 123.49 477.69 128.17"/>
      <rect x="508.58" y="75.11" width="14.84" height="1" transform="translate(87.78 373.27) rotate(-43.14)"/>
      <polygon points="486.92 84.42 486.74 72.75 497.13 58.72 503.88 58.37 503.94 59.37 497.66 59.69 487.75 73.07 487.92 84.4 486.92 84.42"/>
      <polygon points="519.35 105.39 506.13 104.86 499.68 97.6 505.99 90.67 506.73 91.35 501.03 97.61 506.59 103.88 519.08 104.37 532.12 96.13 533.02 88.83 534.01 88.96 533.05 96.72 519.35 105.39"/>
      <polygon points="518.92 92.54 506.38 91.59 506.45 90.6 518.5 91.51 530 78.5 540.7 73.83 550.13 75.22 559.14 81.54 558.57 82.36 549.75 76.17 540.84 74.86 530.5 79.37 518.92 92.54"/>
      <polygon points="495.61 94.33 487.08 85.55 487.8 84.85 495.59 92.87 501.28 86.77 500.26 73.56 511.21 62.79 517.34 52.17 515.87 43.33 509.51 34.63 510.32 34.04 516.82 42.93 518.39 52.36 511.96 63.45 501.3 73.95 502.31 87.13 495.61 94.33"/>
      <polygon points="462.85 96.48 444.18 87.41 434.81 75.3 435.6 74.69 444.83 86.61 462.37 95.13 464.12 91.31 465.03 91.72 462.85 96.48"/>
      <polygon points="464.01 91.99 452.53 83.93 446.9 61.93 447.87 61.68 453.4 83.32 464.59 91.17 464.01 91.99"/>
      <polygon points="468.77 88.95 460.57 74.94 462.96 55.99 463.95 56.11 461.6 74.72 469.64 88.45 468.77 88.95"/>
      <path d="M379.41,120.21l-.14-.04c-10.02-2.8-25.24-7.01-26.11-7.09l.04-1c.93.03,21.67,5.82,26.21,7.08l38.06-10.99,13.57,3.39,26.12-4.04.15.99-26.32,4.08-13.5-3.38-38.07,11Z"/>
      <polygon points="381.11 126.3 349.49 117.92 343.37 108.74 331.98 103.05 332.43 102.15 344.05 107.97 350.11 117.05 381.09 125.26 418.5 113.63 418.8 114.58 381.11 126.3"/>
      <polygon points="461.17 100.7 351.83 81.96 303.7 89.73 303.54 88.74 351.83 80.95 351.91 80.96 460.54 99.58 463.78 91.67 464.7 92.04 461.17 100.7"/>
      <polygon points="370.05 223.75 369.63 222.85 413.04 202.47 413.51 194.4 435.03 175.31 435.69 176.05 414.49 194.88 414 203.13 370.05 223.75"/>
      <polygon points="414.53 146.16 413.8 145.48 427.16 131.15 457.61 117.62 458.01 118.53 427.66 132.02 414.53 146.16"/>
      <polygon points="377.4 205.75 376.49 205.33 392.99 169.83 405.61 155.75 415.46 155.51 431.88 138.61 432.6 139.31 415.9 156.49 406.07 156.73 393.78 170.44 377.4 205.75"/>
      <polygon points="424.31 196.95 423.64 196.2 459.77 164.12 473.43 135.45 474.33 135.88 460.59 164.74 424.31 196.95"/>
      <polygon points="517.22 157.21 505.12 147.83 496.04 128.64 500.69 126.74 501.07 127.66 497.4 129.17 505.92 147.19 517.83 156.42 517.22 157.21"/>
      <polygon points="530.6 145.12 508.6 139.49 500.54 128.01 501.36 127.43 509.2 138.61 530.85 144.15 530.6 145.12"/>
      <polygon points="517.59 131.45 503.57 123.24 504.08 122.38 517.8 130.42 536.41 128.07 536.54 129.06 517.59 131.45"/>
    </g>
    <g>
      <path d="M273.28,807.84c0-1.1-.9-2-2-2s-2,.9-2,2,.9,2,2,2,2-.9,2-2Z"/>
      <path d="M286.56,837.05c0-1.1-.9-2-2-2s-2,.9-2,2,.9,2,2,2,2-.9,2-2Z"/>
      <path d="M240.97,837.05c0-1.1-.9-2-2-2s-2,.9-2,2,.9,2,2,2,2-.9,2-2Z"/>
      <path d="M231.91,823.98c0-1.1-.9-2-2-2s-2,.9-2,2,.9,2,2,2,2-.9,2-2Z"/>
      <path d="M244.44,790.1c0-1.1-.9-2-2-2s-2,.9-2,2,.9,2,2,2,2-.9,2-2Z"/>
      <path d="M181.26,821.58c0-1.1-.9-2-2-2s-2,.9-2,2,.9,2,2,2,2-.9,2-2Z"/>
      <path d="M171.4,824.24c0-1.1-.9-2-2-2s-2,.9-2,2,.9,2,2,2,2-.9,2-2Z"/>
      <path d="M150.07,814.37c0-1.1-.9-2-2-2s-2,.9-2,2,.9,2,2,2,2-.9,2-2Z"/>
      <path d="M136.21,787.97c0-1.1-.9-2-2-2s-2,.9-2,2,.9,2,2,2,2-.9,2-2Z"/>
      <path d="M73.26,811.78c0-1.1-.9-2-2-2s-2,.9-2,2,.9,2,2,2,2-.9,2-2Z"/>
      <path d="M113.82,809.84c0-1.1-.9-2-2-2s-2,.9-2,2,.9,2,2,2,2-.9,2-2Z"/>
      <path d="M126.03,814.46c0-1.1-.9-2-2-2s-2,.9-2,2,.9,2,2,2,2-.9,2-2Z"/>
      <path d="M126.61,831.98c0-1.1-.9-2-2-2s-2,.9-2,2,.89,2,2,2,2-.9,2-2Z"/>
      <path d="M8.25,757.83c0-1.1-.9-2-2-2s-2,.9-2,2,.9,2,2,2,2-.9,2-2Z"/>
      <path d="M8.25,835.45c0-1.1-.9-2-2-2s-2,.9-2,2,.9,2,2,2,2-.9,2-2Z"/>
    </g>
    <g>
      <polygon points="167.46 815.13 147.27 815.13 147.27 814.13 167.05 814.13 174.51 806.66 214.23 806.66 231.29 789.59 242.43 789.59 242.43 790.59 231.71 790.59 214.65 807.66 174.93 807.66 167.46 815.13"/>
      <polygon points="57.62 844.05 29.24 815.66 14.58 815.66 -11.01 790.06 -33.4 790.06 -44.21 779.25 -43.5 778.54 -32.99 789.06 -10.6 789.06 14.99 814.66 29.65 814.66 58.32 843.35 57.62 844.05"/>
      <polygon points="284.54 837.8 264.88 837.8 251.82 824.73 229.9 824.73 229.9 823.73 252.23 823.73 265.29 836.8 284.54 836.8 284.54 837.8"/>
      <polygon points="170.19 824.73 143.06 824.73 133.7 815.37 133.7 787.96 134.7 787.96 134.7 814.96 143.47 823.73 170.19 823.73 170.19 824.73"/>
      <polygon points="262.95 849.8 214.23 849.8 201.17 836.73 133.35 836.73 124.43 845.65 123.72 844.95 132.93 835.73 201.58 835.73 214.65 848.8 262.95 848.8 262.95 849.8"/>
      <polygon points="221.04 822.06 179.25 822.06 179.25 821.06 220.63 821.06 227.29 814.4 263.81 814.4 270.12 807.97 270.84 808.67 264.23 815.4 227.71 815.4 221.04 822.06"/>
      <polygon points="238.96 837.8 217.7 837.8 202.89 822.98 203.6 822.28 218.11 836.8 238.96 836.8 238.96 837.8"/>
      <polygon points="89.63 839.67 64.69 839.67 26.82 801.77 26.82 779.63 5.9 758.71 6.61 758 27.82 779.22 27.82 801.35 65.11 838.67 89.22 838.67 95.88 832 124.61 832 124.61 833 96.29 833 89.63 839.67"/>
      <polygon points="82.7 825.53 51.84 825.53 51.84 824.53 82.29 824.53 97.48 809.33 111.01 809.33 111.01 810.33 97.89 810.33 82.7 825.53"/>
      <polygon points="124.44 814.42 123.44 814.42 123.44 798.88 116 791.44 106.54 791.44 96.94 801.04 82.8 801.04 72.01 811.84 71.3 811.13 82.39 800.04 96.53 800.04 106.13 790.44 116.42 790.44 124.44 798.47 124.44 814.42"/>
      <polygon points="35.49 845.12 26.57 836.2 5.46 836.2 5.46 835.2 26.99 835.2 36.2 844.41 35.49 845.12"/>
    </g>
    <g>
      <path d="M432.22,819.38c-1.1,0-2,.9-2,2s.9,2,2,2,2-.9,2-2-.9-2-2-2Z"/>
      <path d="M520.76,841.5c-1.1,0-2,.9-2,2s.9,2,2,2,2-.9,2-2-.9-2-2-2Z"/>
      <path d="M507.96,833.24c-1.1,0-2,.9-2,2s.9,2,2,2,2-.9,2-2-.9-2-2-2Z"/>
      <path d="M518.09,824.17c-1.1,0-2,.9-2,2s.9,2,2,2,2-.9,2-2-.9-2-2-2Z"/>
      <path d="M580.5,837.77c-1.1,0-2,.9-2,2s.9,2,2,2,2-.89,2-2-.9-2-2-2Z"/>
      <path d="M580.5,821.51c-1.1,0-2,.89-2,2s.9,2,2,2,2-.9,2-2-.9-2-2-2Z"/>
      <path d="M551.96,802.58c-1.1,0-2,.9-2,2s.9,2,2,2,2-.89,2-2-.9-2-2-2Z"/>
      <path d="M563.7,812.45c-1.1,0-2,.9-2,2s.9,2,2,2,2-.89,2-2-.9-2-2-2Z"/>
      <path d="M572.76,791.65c-1.1,0-2,.9-2,2s.9,2,2,2,2-.9,2-2-.9-2-2-2Z"/>
      <path d="M547.69,765.27c-1.1,0-2,.9-2,2s.9,2,2,2,2-.89,2-2-.9-2-2-2Z"/>
      <path d="M560.76,770.06c-1.1,0-2,.89-2,2s.9,2,2,2,2-.9,2-2-.9-2-2-2Z"/>
      <path d="M546.36,744.47c-1.1,0-2,.9-2,2s.9,2,2,2,2-.9,2-2-.9-2-2-2Z"/>
      <path d="M528.76,739.14c-1.1,0-2,.89-2,2s.9,2,2,2,2-.9,2-2-.9-2-2-2Z"/>
      <path d="M552.49,684.23c-1.1,0-2,.89-2,2s.9,2,2,2,2-.9,2-2-.9-2-2-2Z"/>
      <path d="M563.16,717.02c-1.1,0-2,.89-2,2s.9,2,2,2,2-.89,2-2-.9-2-2-2Z"/>
      <path d="M563.16,700.76c-1.1,0-2,.89-2,2s.9,2,2,2,2-.89,2-2-.9-2-2-2Z"/>
      <path d="M497.03,566.15c-1.1,0-2,.89-2,2s.9,2,2,2,2-.89,2-2-.9-2-2-2Z"/>
      <path d="M539.96,558.96c-1.1,0-2,.9-2,2s.9,2,2,2,2-.9,2-2-.9-2-2-2Z"/>
      <path d="M550.09,568.82c-1.1,0-2,.9-2,2s.9,2,2,2,2-.89,2-2-.9-2-2-2Z"/>
      <path d="M562.1,546.16c-1.1,0-2,.89-2,2s.9,2,2,2,2-.89,2-2-.9-2-2-2Z"/>
      <path d="M574.63,559.22c-1.1,0-2,.9-2,2s.9,2,2,2,2-.89,2-2-.9-2-2-2Z"/>
      <path d="M573.83,612.8c-1.1,0-2,.89-2,2s.9,2,2,2,2-.89,2-2-.9-2-2-2Z"/>
      <path d="M509.56,643.63c-1.1,0-2,.89-2,2s.9,2,2,2,2-.89,2-2-.9-2-2-2Z"/>
      <path d="M575.7,634.92c-1.1,0-2,.9-2,2s.9,2,2,2,2-.9,2-2-.9-2-2-2Z"/>
      <path d="M565.56,664.51c-1.1,0-2,.89-2,2s.9,2,2,2,2-.89,2-2-.9-2-2-2Z"/>
      <path d="M568.5,678.37c-1.1,0-2,.89-2,2s.9,2,2,2,2-.9,2-2-.9-2-2-2Z"/>
      <path d="M509.03,714.89c-1.1,0-2,.89-2,2s.9,2,2,2,2-.89,2-2-.9-2-2-2Z"/>
      <path d="M274.35,790.07c-1.1,0-2,.9-2,2s.9,2,2,2,2-.9,2-2-.9-2-2-2Z"/>
      <path d="M256.93,801.62c-1.1,0-2,.9-2,2s.9,2,2,2,2-.9,2-2-.9-2-2-2Z"/>
      <path d="M504.49,747.14c-1.1,0-2,.9-2,2s.9,2,2,2,2-.9,2-2-.9-2-2-2Z"/>
      <path d="M513.56,817.24c-1.1,0-2,.89-2,2s.9,2,2,2,2-.9,2-2-.9-2-2-2Z"/>
      <path d="M405.02,835.37c-1.1,0-2,.9-2,2s.9,2,2,2,2-.89,2-2-.9-2-2-2Z"/>
      <path d="M370.35,836.43c-1.1,0-2,.9-2,2s.9,2,2,2,2-.9,2-2-.9-2-2-2Z"/>
      <path d="M371.95,809.25c-1.1,0-2,.89-2,2s.9,2,2,2,2-.9,2-2-.9-2-2-2Z"/>
      <path d="M305.55,784.46c-1.1,0-2,.9-2,2s.9,2,2,2,2-.9,2-2-.9-2-2-2Z"/>
    </g>
    <g>
      <polygon points="594.68 866.64 569.46 841.44 569.46 820.77 593.08 797.16 593.78 797.87 570.46 821.18 570.46 841.03 595.38 865.94 594.68 866.64"/>
      <rect x="580.13" y="823.37" width="1" height="15.73"/>
      <polygon points="564.98 814.13 564.28 813.42 582.26 795.45 582.26 768.26 599.74 750.79 600.45 751.49 583.26 768.67 583.26 795.86 564.98 814.13"/>
      <polygon points="573.4 793.52 572.4 793.52 572.4 762.39 580.13 754.66 580.13 733.81 581.13 733.81 581.13 755.08 573.4 762.81 573.4 793.52"/>
      <polygon points="508.09 835.87 465.48 835.87 451.08 821.48 432.36 821.48 432.36 820.48 451.5 820.48 465.9 834.87 508.09 834.87 508.09 835.87"/>
      <polygon points="415.16 868.98 414.35 868.39 421.97 858.06 533.46 858.06 533.46 842.77 518.41 827.73 519.11 827.02 534.46 842.36 534.46 859.06 422.47 859.06 415.16 868.98"/>
      <polygon points="528.98 741.36 528.27 740.66 552.13 716.81 552.13 687.97 553.13 687.97 553.13 717.23 528.98 741.36"/>
      <polygon points="552.45 804.8 551.74 804.1 560.13 795.71 560.13 771.66 561.13 771.66 561.13 796.13 552.45 804.8"/>
      <polygon points="581.61 867.98 554.79 841.17 554.79 821.18 531.65 798.05 547.06 782.65 547.06 767.13 548.06 767.13 548.06 783.07 533.07 798.05 555.79 820.77 555.79 840.76 582.32 867.27 581.61 867.98"/>
      <polygon points="547.38 746.69 546.67 745.99 561.75 730.91 580.63 730.91 580.63 731.91 562.17 731.91 547.38 746.69"/>
      <polygon points="561.61 868.24 545.73 852.37 545.73 831.58 520.15 806.02 485.69 806.02 485.69 805.02 520.57 805.02 546.73 831.16 546.73 851.95 562.32 867.53 561.61 868.24"/>
      <polygon points="363.37 820.8 339.49 820.8 305.21 786.53 305.92 785.83 339.9 819.8 362.95 819.8 371.87 810.88 372.58 811.59 363.37 820.8"/>
      <polygon points="509.37 716.97 508.67 716.26 519.18 705.75 519.18 683.36 544.78 657.77 544.78 643.11 573.46 614.45 574.17 615.15 545.78 643.52 545.78 658.18 520.18 683.77 520.18 706.16 509.37 716.97"/>
      <polygon points="531.89 645.95 509.55 645.95 509.55 644.95 531.48 644.95 568.78 607.66 568.78 583.56 562.12 576.89 562.12 548.17 563.12 548.17 563.12 576.48 569.78 583.14 569.78 608.08 531.89 645.95"/>
      <polygon points="555.65 620.93 554.65 620.93 554.65 590.48 539.45 575.29 539.45 561.76 540.45 561.76 540.45 574.88 555.65 590.07 555.65 620.93"/>
      <polygon points="550.32 570.82 549.32 570.82 549.32 555.3 541.88 547.87 532.42 547.87 522.82 557.46 508.69 557.46 497.91 568.24 497.2 567.54 508.28 556.46 522.41 556.46 532.01 546.87 542.29 546.87 550.32 554.89 550.32 570.82"/>
      <polygon points="566.32 667.31 565.32 667.31 565.32 645.78 574.53 636.57 575.24 637.27 566.32 646.19 566.32 667.31"/>
      <polygon points="582.02 719.51 563.15 719.51 563.15 718.51 581.61 718.51 597.46 702.67 598.17 703.37 582.02 719.51"/>
      <polygon points="564.57 701.78 563.86 701.07 578.92 686.02 578.92 656.7 586.91 648.71 586.91 593.42 573.85 580.36 573.85 560.16 574.85 560.16 574.85 579.94 587.91 593 587.91 649.12 579.92 657.12 579.92 686.44 564.57 701.78"/>
      <polygon points="504.99 749.13 503.99 749.13 503.99 733.47 537.58 699.88 537.58 684.16 548.81 672.94 561.49 672.94 569.1 680.55 568.4 681.25 561.08 673.94 549.22 673.94 538.58 684.57 538.58 700.3 504.99 733.88 504.99 749.13"/>
      <polygon points="361.91 860.1 361.21 859.39 369.86 850.74 369.86 838.69 370.86 838.69 370.86 851.15 361.91 860.1"/>
      <polygon points="312.46 861.35 311.46 861.35 311.46 850.9 286.93 826.38 286.93 805.32 274.01 792.41 274.72 791.7 287.93 804.91 287.93 825.96 312.46 850.48 312.46 861.35"/>
      <polygon points="334.98 886.76 334.27 886.05 341.06 879.27 341.06 858.89 296.53 814.38 296.53 799.99 278.72 782.18 266.3 782.18 257.78 790.7 257.78 804.72 256.78 804.72 256.78 790.29 265.89 781.18 279.13 781.18 297.53 799.58 297.53 813.97 342.06 858.48 342.06 879.68 334.98 886.76"/>
      <polygon points="381.11 847.57 380.4 846.86 403.19 824.09 403.19 815.56 415.48 803.27 471.09 803.27 486.56 818.73 513.02 818.73 513.02 819.73 486.15 819.73 470.68 804.27 415.9 804.27 404.19 815.97 404.19 824.5 381.11 847.57"/>
      <polygon points="407.51 853.17 406.8 852.46 414.12 845.14 414.12 821.69 430.54 805.28 431.24 805.99 415.12 822.1 415.12 845.56 407.51 853.17"/>
      <polygon points="397.47 862.76 392.26 857.55 392.26 849.14 403.87 837.53 404.58 838.24 393.26 849.55 393.26 857.14 398.18 862.05 397.47 862.76"/>
    </g>
    <g>
      <path d="M79.72,38.23c1.1,0,2-.89,2-2s-.9-2-2-2-2,.89-2,2,.9,2,2,2Z"/>
      <path d="M69.33,88.33c1.1,0,2-.89,2-2s-.9-2-2-2-2,.89-2,2,.9,2,2,2Z"/>
      <path d="M18.41,10.52c1.1,0,2-.89,2-2s-.9-2-2-2-2,.89-2,2,.9,2,2,2Z"/>
      <path d="M176.23,63.81c1.1,0,2-.89,2-2s-.9-2-2-2-2,.89-2,2,.9,2,2,2Z"/>
      <path d="M184.76,87.53c1.1,0,2-.89,2-2s-.9-2-2-2-2,.89-2,2,.9,2,2,2Z"/>
      <path d="M26.41,92.33c1.1,0,2-.89,2-2s-.9-2-2-2-2,.89-2,2,.9,2,2,2Z"/>
      <path d="M33.34,71.28c1.1,0,2-.89,2-2s-.9-2-2-2-2,.89-2,2,.9,2,2,2Z"/>
      <path d="M24.01,77.4c1.1,0,2-.89,2-2s-.9-2-2-2-2,.89-2,2,.9,2,2,2Z"/>
      <path d="M20.01,56.62c1.1,0,2-.89,2-2s-.9-2-2-2-2,.89-2,2,.9,2,2,2Z"/>
      <path d="M33.34,43.29c1.1,0,2-.89,2-2s-.9-2-2-2-2,.89-2,2,.9,2,2,2Z"/>
      <path d="M78.66,20.64c1.1,0,2-.89,2-2s-.9-2-2-2-2,.89-2,2,.9,2,2,2Z"/>
      <path d="M96.25,73.67c1.1,0,2-.89,2-2s-.9-2-2-2-2,.89-2,2,.9,2,2,2Z"/>
      <path d="M107.98,24.11c1.1,0,2-.89,2-2s-.9-2-2-2-2,.89-2,2,.9,2,2,2Z"/>
      <path d="M145.04,45.43c1.1,0,2-.89,2-2s-.9-2-2-2-2,.89-2,2,.9,2,2,2Z"/>
    </g>
    <g>
      <polygon points="18.28 9.42 -.86 9.42 -15.25 -4.97 -57.43 -4.97 -57.43 -5.97 -14.84 -5.97 -.44 8.42 18.28 8.42 18.28 9.42"/>
      <polygon points="144.67 44.06 110.7 10.1 87.66 10.1 78.74 19.01 78.03 18.3 87.24 9.1 111.11 9.1 145.38 43.35 144.67 44.06"/>
      <polygon points="33.96 69.64 33.25 68.93 72.82 29.38 72.82 13.39 98.94 -12.73 98.94 -26.05 107.62 -34.72 108.33 -34.02 99.94 -25.64 99.94 -12.31 73.82 13.8 73.82 29.79 73.67 29.94 33.96 69.64"/>
      <polygon points="68.7 86.69 57.09 75.09 57.09 58.15 78.03 37.22 78.74 37.93 58.09 58.57 58.09 74.68 69.41 85.99 68.7 86.69"/>
      <polygon points="-10.29 126.66 -11 125.96 4.85 110.12 4.85 93.86 23.39 75.33 24.09 76.04 5.85 94.28 5.85 110.53 -10.29 126.66"/>
      <rect x="22.27" y="79.84" width="28.27" height="1" transform="translate(-46.15 49.27) rotate(-45)"/>
      <polygon points="-12.96 69.64 -13.66 68.93 1.14 54.13 19.21 54.13 19.21 55.13 1.56 55.13 -12.96 69.64"/>
      <polygon points="-76.28 64.19 -87.42 64.19 -87.42 63.19 -76.69 63.19 -61.23 47.74 -19.92 47.74 -12.99 40.81 33.34 40.81 33.34 41.81 -12.57 41.81 -19.5 48.74 -60.82 48.74 -76.28 64.19"/>
      <polygon points="96.51 72.45 86.71 72.45 78.21 63.96 85.08 57.09 85.08 27.24 91.24 21.09 107.97 21.09 107.97 22.09 91.65 22.09 86.08 27.66 86.08 57.5 79.63 63.96 87.12 71.45 96.51 71.45 96.51 72.45"/>
      <polygon points="175.86 62.18 162.65 48.98 162.65 27.92 138.13 3.41 138.13 -7.46 139.13 -7.46 139.13 3 163.65 27.51 163.65 48.56 176.57 61.47 175.86 62.18"/>
      <polygon points="184.39 85.63 153.06 54.3 153.06 39.92 108.54 -4.58 108.54 -25.78 115.62 -32.86 116.32 -32.15 109.54 -25.37 109.54 -5 154.06 39.5 154.06 53.89 185.1 84.92 184.39 85.63"/>
      <polygon points="35.14 26.62 -20.45 26.62 -35.91 11.16 -62.36 11.16 -62.36 10.16 -35.5 10.16 -20.03 25.62 34.73 25.62 46.43 13.92 46.43 5.39 69.5 -17.67 70.21 -16.96 47.43 5.81 47.43 14.33 35.14 26.62"/>
      <polygon points="20.1 24.61 19.39 23.9 35.5 7.79 35.5 -15.66 43.11 -23.26 43.82 -22.56 36.5 -15.24 36.5 8.21 20.1 24.61"/>
    </g>
</svg>
