<svg xmlns="http://www.w3.org/2000/svg" viewBox="0 0 595.2 841.92" fill="currentColor">
      <g>
        <path d="M273.28,807.84c0-1.1-.9-2-2-2s-2,.9-2,2,.9,2,2,2,2-.9,2-2Z"/>
        <path d="M240.97,837.05c0-1.1-.9-2-2-2s-2,.9-2,2,.9,2,2,2,2-.9,2-2Z"/>
        <path d="M244.44,790.1c0-1.1-.9-2-2-2s-2,.9-2,2,.9,2,2,2,2-.9,2-2Z"/>
        <path d="M181.26,821.58c0-1.1-.9-2-2-2s-2,.9-2,2,.9,2,2,2,2-.9,2-2Z"/>
        <path d="M171.4,824.24c0-1.1-.9-2-2-2s-2,.9-2,2,.9,2,2,2,2-.9,2-2Z"/>
        <path d="M150.07,814.37c0-1.1-.9-2-2-2s-2,.9-2,2,.9,2,2,2,2-.9,2-2Z"/>
        <path d="M136.21,787.97c0-1.1-.9-2-2-2s-2,.9-2,2,.9,2,2,2,2-.9,2-2Z"/>
        <path d="M113.82,809.84c0-1.1-.9-2-2-2s-2,.9-2,2,.9,2,2,2,2-.9,2-2Z"/>
        <path d="M126.61,831.98c0-1.1-.9-2-2-2s-2,.9-2,2,.89,2,2,2,2-.9,2-2Z"/>
        <path d="M59.97,843.71c0-1.1-.9-2-2-2s-2,.9-2,2,.9,2,2,2,2-.9,2-2Z"/>
        <path d="M8.25,757.83c0-1.1-.9-2-2-2s-2,.9-2,2,.9,2,2,2,2-.9,2-2Z"/>
        <path d="M8.25,835.45c0-1.1-.9-2-2-2s-2,.9-2,2,.9,2,2,2,2-.9,2-2Z"/>
      </g>
      <g>
        <polygon points="167.46 815.13 147.27 815.13 147.27 814.13 167.05 814.13 174.51 806.66 214.23 806.66 231.29 789.59 242.43 789.59 242.43 790.59 231.71 790.59 214.65 807.66 174.93 807.66 167.46 815.13"/>
        <polygon points="57.62 844.05 29.24 815.66 14.58 815.66 -11.01 790.06 -33.4 790.06 -44.21 779.25 -43.5 778.54 -32.99 789.06 -10.6 789.06 14.99 814.66 29.65 814.66 58.32 843.35 57.62 844.05"/>
        <polygon points="170.19 824.73 143.06 824.73 133.7 815.37 133.7 787.96 134.7 787.96 134.7 814.96 143.47 823.73 170.19 823.73 170.19 824.73"/>
        <polygon points="262.95 849.8 214.23 849.8 201.17 836.73 133.35 836.73 124.43 845.65 123.72 844.95 132.93 835.73 201.58 835.73 214.65 848.8 262.95 848.8 262.95 849.8"/>
        <polygon points="221.04 822.06 179.25 822.06 179.25 821.06 220.63 821.06 227.29 814.4 263.81 814.4 270.12 807.97 270.84 808.67 264.23 815.4 227.71 815.4 221.04 822.06"/>
        <polygon points="238.96 837.8 217.7 837.8 202.89 822.98 203.6 822.28 218.11 836.8 238.96 836.8 238.96 837.8"/>
        <polygon points="89.63 839.67 64.69 839.67 26.82 801.77 26.82 779.63 5.9 758.71 6.61 758 27.82 779.22 27.82 801.35 65.11 838.67 89.22 838.67 95.88 832 124.61 832 124.61 833 96.29 833 89.63 839.67"/>
        <polygon points="82.7 825.53 51.84 825.53 51.84 824.53 82.29 824.53 97.48 809.33 111.01 809.33 111.01 810.33 97.89 810.33 82.7 825.53"/>
        <polygon points="35.49 845.12 26.57 836.2 5.46 836.2 5.46 835.2 26.99 835.2 36.2 844.41 35.49 845.12"/>
      </g>
      <g>
        <path d="M432.22,819.38c-1.1,0-2,.9-2,2s.9,2,2,2,2-.9,2-2-.9-2-2-2Z"/>
        <path d="M507.96,833.24c-1.1,0-2,.9-2,2s.9,2,2,2,2-.9,2-2-.9-2-2-2Z"/>
        <path d="M580.5,837.77c-1.1,0-2,.9-2,2s.9,2,2,2,2-.89,2-2-.9-2-2-2Z"/>
        <path d="M580.5,821.51c-1.1,0-2,.89-2,2s.9,2,2,2,2-.9,2-2-.9-2-2-2Z"/>
        <path d="M563.7,812.45c-1.1,0-2,.9-2,2s.9,2,2,2,2-.89,2-2-.9-2-2-2Z"/>
        <path d="M572.76,791.65c-1.1,0-2,.9-2,2s.9,2,2,2,2-.9,2-2-.9-2-2-2Z"/>
        <path d="M547.69,765.27c-1.1,0-2,.9-2,2s.9,2,2,2,2-.89,2-2-.9-2-2-2Z"/>
        <path d="M546.36,744.47c-1.1,0-2,.9-2,2s.9,2,2,2,2-.9,2-2-.9-2-2-2Z"/>
        <path d="M563.16,747.67c-1.1,0-2,.89-2,2s.9,2,2,2,2-.9,2-2-.9-2-2-2Z"/>
        <path d="M528.76,739.14c-1.1,0-2,.89-2,2s.9,2,2,2,2-.9,2-2-.9-2-2-2Z"/>
        <path d="M552.49,684.23c-1.1,0-2,.89-2,2s.9,2,2,2,2-.9,2-2-.9-2-2-2Z"/>
        <path d="M563.16,717.02c-1.1,0-2,.89-2,2s.9,2,2,2,2-.89,2-2-.9-2-2-2Z"/>
        <path d="M563.16,700.76c-1.1,0-2,.89-2,2s.9,2,2,2,2-.89,2-2-.9-2-2-2Z"/>
        <path d="M537.44,559.69c0-1.11-.9-2-2.01-2s-2.01.9-2.01,2,.9,2,2.01,2,2.01-.9,2.01-2Z"/>
        <path d="M534.77,612.8c0-1.11-.9-2-2.01-2s-2.01.9-2.01,2,.9,2,2.01,2,2.01-.9,2.01-2Z"/>
        <path d="M562.1,546.16c-1.1,0-2,.89-2,2s.9,2,2,2,2-.89,2-2-.9-2-2-2Z"/>
        <path d="M574.63,559.22c-1.1,0-2,.9-2,2s.9,2,2,2,2-.89,2-2-.9-2-2-2Z"/>
        <path d="M509.56,643.63c-1.1,0-2,.89-2,2s.9,2,2,2,2-.89,2-2-.9-2-2-2Z"/>
        <path d="M575.7,634.92c-1.1,0-2,.9-2,2s.9,2,2,2,2-.9,2-2-.9-2-2-2Z"/>
        <path d="M565.56,664.51c-1.1,0-2,.89-2,2s.9,2,2,2,2-.89,2-2-.9-2-2-2Z"/>
        <path d="M274.35,790.07c-1.1,0-2,.9-2,2s.9,2,2,2,2-.9,2-2-.9-2-2-2Z"/>
        <path d="M256.93,801.62c-1.1,0-2,.9-2,2s.9,2,2,2,2-.9,2-2-.9-2-2-2Z"/>
        <path d="M473.56,747.14c-1.1,0-2,.9-2,2s.9,2,2,2,2-.9,2-2-.9-2-2-2Z"/>
        <path d="M513.56,817.24c-1.1,0-2,.89-2,2s.9,2,2,2,2-.9,2-2-.9-2-2-2Z"/>
        <path d="M405.02,835.37c-1.1,0-2,.9-2,2s.9,2,2,2,2-.89,2-2-.9-2-2-2Z"/>
        <path d="M370.35,836.43c-1.1,0-2,.9-2,2s.9,2,2,2,2-.9,2-2-.9-2-2-2Z"/>
        <path d="M371.95,809.25c-1.1,0-2,.89-2,2s.9,2,2,2,2-.9,2-2-.9-2-2-2Z"/>
        <path d="M305.55,784.46c-1.1,0-2,.9-2,2s.9,2,2,2,2-.9,2-2-.9-2-2-2Z"/>
      </g>
      <g>
        <rect x="580.13" y="823.37" width="1" height="15.73"/>
        <polygon points="564.98 814.13 564.28 813.42 582.26 795.45 582.26 768.26 599.74 750.79 600.45 751.49 583.26 768.67 583.26 795.86 564.98 814.13"/>
        <polygon points="573.4 793.52 572.4 793.52 572.4 762.39 580.13 754.66 580.13 733.81 581.13 733.81 581.13 755.08 573.4 762.81 573.4 793.52"/>
        <polygon points="508.09 835.87 465.48 835.87 451.08 821.48 432.36 821.48 432.36 820.48 451.5 820.48 465.9 834.87 508.09 834.87 508.09 835.87"/>
        <polygon points="528.98 741.36 528.27 740.66 552.13 716.81 552.13 687.97 553.13 687.97 553.13 717.23 528.98 741.36"/>
        <polygon points="581.61 867.98 554.79 841.17 554.79 821.18 531.65 798.05 547.06 782.65 547.06 767.13 548.06 767.13 548.06 783.07 533.07 798.05 555.79 820.77 555.79 840.76 582.32 867.27 581.61 867.98"/>
        <polygon points="547.38 746.69 546.67 745.99 561.75 730.91 580.63 730.91 580.63 731.91 562.17 731.91 547.38 746.69"/>
        <polygon points="561.61 868.24 545.73 852.37 545.73 831.58 520.15 806.02 485.69 806.02 485.69 805.02 520.57 805.02 546.73 831.16 546.73 851.95 562.32 867.53 561.61 868.24"/>
        <polygon points="363.37 820.8 339.49 820.8 305.21 786.53 305.92 785.83 339.9 819.8 362.95 819.8 371.87 810.88 372.58 811.59 363.37 820.8"/>
        <polygon points="496.16 767.22 480.55 767.22 473.05 759.73 473.05 749.66 474.05 749.66 474.05 759.32 480.96 766.22 495.75 766.22 512.13 749.84 512.84 750.55 496.16 767.22"/>
        <polygon points="556.42 756.56 506.08 756.56 506.08 755.56 556.01 755.56 562.26 749.31 562.97 750.02 556.42 756.56"/>
        <polygon points="531.89 645.95 509.55 645.95 509.55 644.95 531.48 644.95 568.78 607.66 568.78 583.56 562.12 576.89 562.12 548.17 563.12 548.17 563.12 576.48 569.78 583.14 569.78 608.08 531.89 645.95"/>
        <polygon points="548.74 613.02 532.76 613.02 532.76 612.02 548.33 612.02 555.79 604.57 555.79 595.11 546.17 585.51 546.17 571.36 535.35 560.57 536.05 559.86 547.17 570.95 547.17 585.09 556.79 594.7 556.79 604.99 548.74 613.02"/>
        <polygon points="566.32 667.31 565.32 667.31 565.32 645.78 574.53 636.57 575.24 637.27 566.32 646.19 566.32 667.31"/>
        <polygon points="582.02 719.51 563.15 719.51 563.15 718.51 581.61 718.51 597.46 702.67 598.17 703.37 582.02 719.51"/>
        <polygon points="564.57 701.78 563.86 701.07 578.92 686.02 578.92 656.7 586.91 648.71 586.91 593.42 573.85 580.36 573.85 560.16 574.85 560.16 574.85 579.94 587.91 593 587.91 649.12 579.92 657.12 579.92 686.44 564.57 701.78"/>
        <polygon points="361.91 860.1 361.21 859.39 369.86 850.74 369.86 838.69 370.86 838.69 370.86 851.15 361.91 860.1"/>
        <polygon points="312.46 861.35 311.46 861.35 311.46 850.9 286.93 826.38 286.93 805.32 274.01 792.41 274.72 791.7 287.93 804.91 287.93 825.96 312.46 850.48 312.46 861.35"/>
        <polygon points="334.98 886.76 334.27 886.05 341.06 879.27 341.06 858.89 296.53 814.38 296.53 799.99 278.72 782.18 266.3 782.18 257.78 790.7 257.78 804.72 256.78 804.72 256.78 790.29 265.89 781.18 279.13 781.18 297.53 799.58 297.53 813.97 342.06 858.48 342.06 879.68 334.98 886.76"/>
        <polygon points="381.11 847.57 380.4 846.86 403.19 824.09 403.19 815.56 415.48 803.27 471.09 803.27 486.56 818.73 513.02 818.73 513.02 819.73 486.15 819.73 470.68 804.27 415.9 804.27 404.19 815.97 404.19 824.5 381.11 847.57"/>
        <polygon points="407.51 853.17 406.8 852.46 414.12 845.14 414.12 821.69 430.54 805.28 431.24 805.99 415.12 822.1 415.12 845.56 407.51 853.17"/>
        <polygon points="397.47 862.76 392.26 857.55 392.26 849.14 403.87 837.53 404.58 838.24 393.26 849.55 393.26 857.14 398.18 862.05 397.47 862.76"/>
      </g>
      <g>
        <path d="M79.72,38.23c1.1,0,2-.89,2-2s-.9-2-2-2-2,.89-2,2,.9,2,2,2Z"/>
        <path d="M69.33,88.33c1.1,0,2-.89,2-2s-.9-2-2-2-2,.89-2,2,.9,2,2,2Z"/>
        <path d="M18.41,10.52c1.1,0,2-.89,2-2s-.9-2-2-2-2,.89-2,2,.9,2,2,2Z"/>
        <path d="M176.23,63.81c1.1,0,2-.89,2-2s-.9-2-2-2-2,.89-2,2,.9,2,2,2Z"/>
        <path d="M28.54,66.48c1.1,0,2-.89,2-2s-.9-2-2-2-2,.89-2,2,.9,2,2,2Z"/>
        <path d="M19.21,72.6c1.1,0,2-.89,2-2s-.9-2-2-2-2,.89-2,2,.9,2,2,2Z"/>
        <path d="M20.01,56.62c1.1,0,2-.89,2-2s-.9-2-2-2-2,.89-2,2,.9,2,2,2Z"/>
        <path d="M78.66,20.64c1.1,0,2-.89,2-2s-.9-2-2-2-2,.89-2,2,.9,2,2,2Z"/>
        <path d="M145.04,45.43c1.1,0,2-.89,2-2s-.9-2-2-2-2,.89-2,2,.9,2,2,2Z"/>
      </g>
      <g>
        <rect x="-.65" y="8.42" width="18.93" height="1"/>
        <polygon points="144.67 44.06 110.7 10.1 87.66 10.1 78.74 19.01 78.03 18.3 87.24 9.1 111.11 9.1 145.38 43.35 144.67 44.06"/>
        <polygon points="29.16 64.84 28.45 64.13 68.02 24.58 68.02 8.59 94.14 -17.53 94.14 -30.85 102.82 -39.52 103.53 -38.82 95.14 -30.44 95.14 -17.11 69.02 9 69.02 24.99 29.16 64.84"/>
        <polygon points="68.7 86.69 57.09 75.09 57.09 58.15 78.03 37.22 78.74 37.93 58.09 58.57 58.09 74.68 69.41 85.99 68.7 86.69"/>
        <polygon points="-15.09 121.86 -15.8 121.16 .05 105.32 .05 89.06 18.59 70.53 19.29 71.24 1.05 89.48 1.05 105.73 -15.09 121.86"/>
        <polygon points="-1.19 57.88 -1.9 57.17 1.14 54.13 19.21 54.13 19.21 55.13 1.56 55.13 -1.19 57.88"/>
        <polygon points="175.86 62.18 162.65 48.98 162.65 27.92 138.13 3.41 138.13 -7.46 139.13 -7.46 139.13 3 163.65 27.51 163.65 48.56 176.57 61.47 175.86 62.18"/>
        <polygon points="35.14 26.62 -.65 26.62 -.65 25.62 34.73 25.62 46.43 13.92 46.43 5.39 69.5 -17.67 70.21 -16.96 47.43 5.81 47.43 14.33 35.14 26.62"/>
      </g>
</svg>
