<svg xmlns="http://www.w3.org/2000/svg" viewBox="0 0 595.2 841.92" fill="currentColor">
    <g>
      <path d="M312.72,125.74c-.99,0-1.8-.81-1.8-1.8s.81-1.8,1.8-1.8,1.8.81,1.8,1.8-.81,1.8-1.8,1.8Z"/>
      <path d="M216.96,99.82c-.99,0-1.8-.81-1.8-1.8s.81-1.8,1.8-1.8,1.8.81,1.8,1.8-.81,1.8-1.8,1.8Z"/>
      <path d="M273.36,98.86c-.99,0-1.8-.81-1.8-1.8s.81-1.8,1.8-1.8,1.8.81,1.8,1.8-.81,1.8-1.8,1.8Z"/>
      <path d="M282.48,98.14c-.99,0-1.8-.81-1.8-1.8s.81-1.8,1.8-1.8,1.8.81,1.8,1.8-.81,1.8-1.8,1.8Z"/>
      <path d="M328.08,98.14c-.99,0-1.8-.81-1.8-1.8s.81-1.8,1.8-1.8,1.8.81,1.8,1.8-.81,1.8-1.8,1.8Z"/>
      <path d="M312.24,94.78c-.99,0-1.8-.81-1.8-1.8s.81-1.8,1.8-1.8,1.8.81,1.8,1.8-.81,1.8-1.8,1.8Z"/>
      <path d="M224.16,106.3c-.99,0-1.8-.81-1.8-1.8s.81-1.8,1.8-1.8,1.8.81,1.8,1.8-.81,1.8-1.8,1.8Z"/>
      <path d="M259.92,130.06c-.99,0-1.8-.81-1.8-1.8s.81-1.8,1.8-1.8,1.8.81,1.8,1.8-.81,1.8-1.8,1.8Z"/>
      <path d="M258,119.02c-.99,0-1.8-.81-1.8-1.8s.81-1.8,1.8-1.8,1.8.81,1.8,1.8-.81,1.8-1.8,1.8Z"/>
      <path d="M284.16,125.74c-.99,0-1.8-.81-1.8-1.8s.81-1.8,1.8-1.8,1.8.81,1.8,1.8-.81,1.8-1.8,1.8Z"/>
      <path d="M288.24,132.94c-.99,0-1.8-.81-1.8-1.8s.81-1.8,1.8-1.8,1.8.81,1.8,1.8-.81,1.8-1.8,1.8Z"/>
      <path d="M402,124.3c-.99,0-1.8-.81-1.8-1.8s.81-1.8,1.8-1.8,1.8.81,1.8,1.8-.81,1.8-1.8,1.8Z"/>
      <path d="M340.08,125.02c-.99,0-1.8-.81-1.8-1.8s.81-1.8,1.8-1.8,1.8.81,1.8,1.8-.81,1.8-1.8,1.8Z"/>
      <path d="M338.16,111.58c-.99,0-1.8-.81-1.8-1.8s.81-1.8,1.8-1.8,1.8.81,1.8,1.8-.81,1.8-1.8,1.8Z"/>
      <path d="M356.64,112.3c-.99,0-1.8-.81-1.8-1.8s.81-1.8,1.8-1.8,1.8.81,1.8,1.8-.81,1.8-1.8,1.8Z"/>
      <path d="M380.16,135.34c-.99,0-1.8-.81-1.8-1.8s.81-1.8,1.8-1.8,1.8.81,1.8,1.8-.81,1.8-1.8,1.8Z"/>
      <path d="M435.84,120.22c-.99,0-1.8-.81-1.8-1.8s.81-1.8,1.8-1.8,1.8.81,1.8,1.8-.81,1.8-1.8,1.8Z"/>
      <path d="M469.67,282.45c0,.99.81,1.8,1.8,1.8s1.8-.81,1.8-1.8-.81-1.8-1.8-1.8-1.8.81-1.8,1.8Z"/>
      <path d="M495.59,378.21c0,.99.81,1.8,1.8,1.8s1.8-.81,1.8-1.8-.81-1.8-1.8-1.8-1.8.81-1.8,1.8Z"/>
      <path d="M496.55,321.81c0,.99.81,1.8,1.8,1.8s1.8-.81,1.8-1.8-.81-1.8-1.8-1.8-1.8.81-1.8,1.8Z"/>
      <path d="M497.27,312.69c0,.99.81,1.8,1.8,1.8s1.8-.81,1.8-1.8-.81-1.8-1.8-1.8-1.8.81-1.8,1.8Z"/>
      <path d="M497.27,267.09c0,.99.81,1.8,1.8,1.8s1.8-.81,1.8-1.8-.81-1.8-1.8-1.8-1.8.81-1.8,1.8Z"/>
      <path d="M500.63,282.93c0,.99.81,1.8,1.8,1.8s1.8-.81,1.8-1.8-.81-1.8-1.8-1.8-1.8.81-1.8,1.8Z"/>
      <path d="M489.11,371.01c0,.99.81,1.8,1.8,1.8s1.8-.81,1.8-1.8-.81-1.8-1.8-1.8-1.8.81-1.8,1.8Z"/>
      <path d="M465.35,335.25c0,.99.81,1.8,1.8,1.8s1.8-.81,1.8-1.8-.81-1.8-1.8-1.8-1.8.81-1.8,1.8Z"/>
      <path d="M476.39,337.17c0,.99.81,1.8,1.8,1.8s1.8-.81,1.8-1.8-.81-1.8-1.8-1.8-1.8.81-1.8,1.8Z"/>
      <path d="M469.67,311.01c0,.99.81,1.8,1.8,1.8s1.8-.81,1.8-1.8-.81-1.8-1.8-1.8-1.8.81-1.8,1.8Z"/>
      <path d="M462.47,306.93c0,.99.81,1.8,1.8,1.8s1.8-.81,1.8-1.8-.81-1.8-1.8-1.8-1.8.81-1.8,1.8Z"/>
      <path d="M471.11,193.17c0,.99.81,1.8,1.8,1.8s1.8-.81,1.8-1.8-.81-1.8-1.8-1.8-1.8.81-1.8,1.8Z"/>
      <path d="M470.39,255.09c0,.99.81,1.8,1.8,1.8s1.8-.81,1.8-1.8-.81-1.8-1.8-1.8-1.8.81-1.8,1.8Z"/>
      <path d="M483.83,257.01c0,.99.81,1.8,1.8,1.8s1.8-.81,1.8-1.8-.81-1.8-1.8-1.8-1.8.81-1.8,1.8Z"/>
      <path d="M483.11,238.53c0,.99.81,1.8,1.8,1.8s1.8-.81,1.8-1.8-.81-1.8-1.8-1.8-1.8.81-1.8,1.8Z"/>
      <path d="M460.07,215.01c0,.99.81,1.8,1.8,1.8s1.8-.81,1.8-1.8-.81-1.8-1.8-1.8-1.8.81-1.8,1.8Z"/>
      <path d="M468.95,160.29c0,.99.81,1.8,1.8,1.8s1.8-.81,1.8-1.8-.81-1.8-1.8-1.8-1.8.81-1.8,1.8Z"/>
      <path d="M444.47,169.17c0,.99.81,1.8,1.8,1.8s1.8-.81,1.8-1.8-.81-1.8-1.8-1.8-1.8.81-1.8,1.8Z"/>
      <path d="M411.11,193.41c0,.99.81,1.8,1.8,1.8s1.8-.81,1.8-1.8-.81-1.8-1.8-1.8-1.8.81-1.8,1.8Z"/>
      <path d="M378.23,211.65c0,.99.81,1.8,1.8,1.8s1.8-.81,1.8-1.8-.81-1.8-1.8-1.8-1.8.81-1.8,1.8Z"/>
      <path d="M408.71,199.89c0,.99.81,1.8,1.8,1.8s1.8-.81,1.8-1.8-.81-1.8-1.8-1.8-1.8.81-1.8,1.8Z"/>
      <path d="M392.87,206.13c0,.99.81,1.8,1.8,1.8s1.8-.81,1.8-1.8-.81-1.8-1.8-1.8-1.8.81-1.8,1.8Z"/>
      <path d="M422.39,173.25c0,.99.81,1.8,1.8,1.8s1.8-.81,1.8-1.8-.81-1.8-1.8-1.8-1.8.81-1.8,1.8Z"/>
      <path d="M456.47,162.45c0,.99.81,1.8,1.8,1.8s1.8-.81,1.8-1.8-.81-1.8-1.8-1.8-1.8.81-1.8,1.8Z"/>
      <path d="M431.75,138.45c0,.99.81,1.8,1.8,1.8s1.8-.81,1.8-1.8-.81-1.8-1.8-1.8-1.8.81-1.8,1.8Z"/>
      <path d="M396.47,164.61c0,.99.81,1.8,1.8,1.8s1.8-.81,1.8-1.8-.81-1.8-1.8-1.8-1.8.81-1.8,1.8Z"/>
      <path d="M390.71,170.61c0,.99.81,1.8,1.8,1.8s1.8-.81,1.8-1.8-.81-1.8-1.8-1.8-1.8.81-1.8,1.8Z"/>
      <path d="M343.19,209.25c0,.99.81,1.8,1.8,1.8s1.8-.81,1.8-1.8-.81-1.8-1.8-1.8-1.8.81-1.8,1.8Z"/>
      <path d="M344.63,218.85c0,.99.81,1.8,1.8,1.8s1.8-.81,1.8-1.8-.81-1.8-1.8-1.8-1.8.81-1.8,1.8Z"/>
      <path d="M340.79,251.25c0,.99.81,1.8,1.8,1.8s1.8-.81,1.8-1.8-.81-1.8-1.8-1.8-1.8.81-1.8,1.8Z"/>
      <path d="M328.31,258.45c0,.99.81,1.8,1.8,1.8s1.8-.81,1.8-1.8-.81-1.8-1.8-1.8-1.8.81-1.8,1.8Z"/>
      <path d="M317.03,262.05c0,.99.81,1.8,1.8,1.8s1.8-.81,1.8-1.8-.81-1.8-1.8-1.8-1.8.81-1.8,1.8Z"/>
      <path d="M313.43,274.29c0,.99.81,1.8,1.8,1.8s1.8-.81,1.8-1.8-.81-1.8-1.8-1.8-1.8.81-1.8,1.8Z"/>
      <path d="M309.35,287.01c0,.99.81,1.8,1.8,1.8s1.8-.81,1.8-1.8-.81-1.8-1.8-1.8-1.8.81-1.8,1.8Z"/>
      <path d="M397.43,227.25c0,.99.81,1.8,1.8,1.8s1.8-.81,1.8-1.8-.81-1.8-1.8-1.8-1.8.81-1.8,1.8Z"/>
      <path d="M387.83,233.97c0,.99.81,1.8,1.8,1.8s1.8-.81,1.8-1.8-.81-1.8-1.8-1.8-1.8.81-1.8,1.8Z"/>
      <path d="M518.15,193.41c0,.99.81,1.8,1.8,1.8s1.8-.81,1.8-1.8-.81-1.8-1.8-1.8-1.8.81-1.8,1.8Z"/>
      <path d="M536.39,176.13c0,.99.81,1.8,1.8,1.8s1.8-.81,1.8-1.8-.81-1.8-1.8-1.8-1.8.81-1.8,1.8Z"/>
      <path d="M544.55,153.57c0,.99.81,1.8,1.8,1.8s1.8-.81,1.8-1.8-.81-1.8-1.8-1.8-1.8.81-1.8,1.8Z"/>
      <path d="M503.27,130.05c0,.99.81,1.8,1.8,1.8s1.8-.81,1.8-1.8-.81-1.8-1.8-1.8-1.8.81-1.8,1.8Z"/>
      <path d="M494.63,152.13c0,.99.81,1.8,1.8,1.8s1.8-.81,1.8-1.8-.81-1.8-1.8-1.8-1.8.81-1.8,1.8Z"/>
      <path d="M447.7,112.23c0,.86.7,1.57,1.57,1.57s1.57-.7,1.57-1.57-.7-1.57-1.57-1.57-1.57.7-1.57,1.57Z"/>
      <path d="M457.31,104.5c0,.86.7,1.57,1.57,1.57s1.57-.7,1.57-1.57-.7-1.57-1.57-1.57-1.57.7-1.57,1.57Z"/>
      <path d="M473.59,109.93c0,.86.7,1.57,1.57,1.57s1.57-.7,1.57-1.57-.7-1.57-1.57-1.57-1.57.7-1.57,1.57Z"/>
      <path d="M450.42,129.56c0,.86.7,1.57,1.57,1.57s1.57-.7,1.57-1.57-.7-1.57-1.57-1.57-1.57.7-1.57,1.57Z"/>
      <path d="M467.54,125.38c0,.86.7,1.57,1.57,1.57s1.57-.7,1.57-1.57-.7-1.57-1.57-1.57-1.57.7-1.57,1.57Z"/>
      <path d="M494.63,62.61c0,.99.81,1.8,1.8,1.8s1.8-.81,1.8-1.8-.81-1.8-1.8-1.8-1.8.81-1.8,1.8Z"/>
      <path d="M506.63,55.17c0,.99.81,1.8,1.8,1.8s1.8-.81,1.8-1.8-.81-1.8-1.8-1.8-1.8.81-1.8,1.8Z"/>
      <path d="M506.39,19.65c0,.99.81,1.8,1.8,1.8s1.8-.81,1.8-1.8-.81-1.8-1.8-1.8-1.8.81-1.8,1.8Z"/>
      <path d="M576.23,87.33c0,.99.81,1.8,1.8,1.8s1.8-.81,1.8-1.8-.81-1.8-1.8-1.8-1.8.81-1.8,1.8Z"/>
      <path d="M533.75,101.01c0,.99.81,1.8,1.8,1.8s1.8-.81,1.8-1.8-.81-1.8-1.8-1.8-1.8.81-1.8,1.8Z"/>
      <path d="M504.71,90.69c0,.99.81,1.8,1.8,1.8s1.8-.81,1.8-1.8-.81-1.8-1.8-1.8-1.8.81-1.8,1.8Z"/>
      <path d="M502.79,80.61c0,.99.81,1.8,1.8,1.8s1.8-.81,1.8-1.8-.81-1.8-1.8-1.8-1.8.81-1.8,1.8Z"/>
      <path d="M518.15,66.21c0,.99.81,1.8,1.8,1.8s1.8-.81,1.8-1.8-.81-1.8-1.8-1.8-1.8.81-1.8,1.8Z"/>
      <path d="M528.47,77.25c0,.99.81,1.8,1.8,1.8s1.8-.81,1.8-1.8-.81-1.8-1.8-1.8-1.8.81-1.8,1.8Z"/>
      <path d="M510.47,83.73c0,.99.81,1.8,1.8,1.8s1.8-.81,1.8-1.8-.81-1.8-1.8-1.8-1.8.81-1.8,1.8Z"/>
      <path d="M485.99,100.29c0,.99.81,1.8,1.8,1.8s1.8-.81,1.8-1.8-.81-1.8-1.8-1.8-1.8.81-1.8,1.8Z"/>
      <path d="M495.59,92.85c0,.99.81,1.8,1.8,1.8s1.8-.81,1.8-1.8-.81-1.8-1.8-1.8-1.8.81-1.8,1.8Z"/>
      <path d="M504.95,111.33c0,.99.81,1.8,1.8,1.8s1.8-.81,1.8-1.8-.81-1.8-1.8-1.8-1.8.81-1.8,1.8Z"/>
      <path d="M539.99,89.73c0,.99.81,1.8,1.8,1.8s1.8-.81,1.8-1.8-.81-1.8-1.8-1.8-1.8.81-1.8,1.8Z"/>
      <path d="M441.35,100.77c0,.99.81,1.8,1.8,1.8s1.8-.81,1.8-1.8-.81-1.8-1.8-1.8-1.8.81-1.8,1.8Z"/>
      <path d="M400.07,76.53c0,.99.81,1.8,1.8,1.8s1.8-.81,1.8-1.8-.81-1.8-1.8-1.8-1.8.81-1.8,1.8Z"/>
      <path d="M417.83,58.29c0,.99.81,1.8,1.8,1.8s1.8-.81,1.8-1.8-.81-1.8-1.8-1.8-1.8.81-1.8,1.8Z"/>
      <path d="M440.87,50.37c0,.99.81,1.8,1.8,1.8s1.8-.81,1.8-1.8-.81-1.8-1.8-1.8-1.8.81-1.8,1.8Z"/>
    </g>
    <g>
      <polygon points="486.57 123.45 474.69 110.29 475.43 109.62 486.94 122.36 496.26 120.54 496.45 121.52 486.57 123.45"/>
      <rect x="451.35" y="104.97" width="7.75" height="1" transform="translate(-11.99 113.39) rotate(-14.02)"/>
      <polygon points="457.58 113.65 451.64 107.52 449.42 113.07 448.5 112.7 451.29 105.72 458.3 112.95 457.58 113.65"/>
      <polygon points="463.8 143.31 451.52 129.93 452.25 129.25 463.35 141.34 465.1 135.56 458.84 128.45 460.39 123.59 461.34 123.89 459.96 128.22 466.22 135.31 463.8 143.31"/>
      <polygon points="475.64 148.9 475.42 147.92 486.79 145.44 495.58 121.14 478.21 101.93 463.99 104.11 466.08 112.24 458.1 113.54 455.31 121.28 447.59 117.94 443.06 131.35 449.33 138.23 448.59 138.9 441.92 131.59 446.99 116.59 454.73 119.94 457.36 112.65 464.84 111.43 462.75 103.28 478.59 100.86 496.72 120.91 487.55 146.3 475.64 148.9"/>
      <polygon points="460.29 152.06 456.4 148.2 457.1 147.49 460.6 150.96 471.13 148.62 469.45 140.67 480.52 138.75 482.99 130.96 476.92 129.08 478.67 124.07 472.18 117.19 467.56 118.26 469.9 125.47 468.95 125.77 466.27 117.53 472.51 116.09 479.81 123.83 478.21 128.43 484.25 130.3 481.29 139.63 470.65 141.48 472.31 149.39 460.29 152.06"/>
      <path d="M465.73,135.96l-7.02-7.74,3.5-9.84,10.49-2.1,7.02,7.74-3.5,9.84-10.49,2.1ZM459.86,127.99l6.24,6.87,9.38-1.88,3.11-8.74-6.24-6.87-9.38,1.88-3.11,8.74Z"/>
      <rect x="501.63" y="72.94" width="21.05" height="1" transform="translate(88.23 370.06) rotate(-43.14)"/>
      <polygon points="486.46 99.37 485.73 73.99 495.46 62.32 496.22 62.96 486.75 74.33 487.46 99.35 486.46 99.37"/>
      <polygon points="516.93 92.2 506.13 91.46 506.19 90.46 516.51 91.16 529.31 77.18 530.05 77.86 516.93 92.2"/>
      <polygon points="476.38 92.89 475.9 74.24 490.54 54.47 508.31 53.98 508.33 54.98 491.06 55.45 476.9 74.56 477.38 92.87 476.38 92.89"/>
      <path d="M521.9,120.27l-18.61-.73-9.83-11.09,9.73-8.73.67.74-8.99,8.07,8.89,10.03,17.87.71,18.62-11.79,1.66-17.76,1,.09-1.7,18.24-19.3,12.21ZM522.41,113.07l-16.28-.97.06-1,15.88.95,13.29-11.39.65.76-13.59,11.65Z"/>
      <rect x="510.84" y="80.14" width="9.85" height="1" transform="translate(83.77 373.72) rotate(-43.04)"/>
      <polygon points="521.25 102.04 503.56 100.7 503.63 99.71 520.83 101 537.04 82.57 552.27 75.93 565.53 77.87 578.28 86.82 577.71 87.64 565.15 78.83 552.41 76.96 537.64 83.39 521.25 102.04"/>
      <polygon points="496.54 94.36 495.08 75.41 510.56 60.17 519.32 45.02 517.21 32.36 508.16 19.97 508.96 19.38 518.15 31.96 520.36 45.21 511.31 60.84 496.12 75.79 497.54 94.28 496.54 94.36"/>
      <polygon points="437.98 114.19 437.06 113.81 440.08 106.65 415.44 94.81 402.17 77.67 402.96 77.06 416.09 94.01 441.37 106.16 437.98 114.19"/>
      <polygon points="443.56 101.3 427.33 89.91 419.36 58.77 420.33 58.52 428.2 89.3 444.13 100.48 443.56 101.3"/>
      <polygon points="450.55 96.87 438.77 77.24 442.15 50.42 443.14 50.55 439.8 77.02 451.07 95.79 476.57 92.38 476.71 93.38 450.55 96.87"/>
      <polygon points="314.45 102.23 289.99 101.26 282.21 96.89 282.7 96.01 290.27 100.28 314.29 101.23 328.83 95.74 329.19 96.68 314.45 102.23"/>
      <polygon points="437.41 113.98 374.19 103.69 355.84 111.31 355.46 110.39 374.07 102.65 437.57 113 437.41 113.98"/>
      <polygon points="349.65 126.97 339.42 123.81 339.72 122.85 349.65 125.93 376.74 117.78 401.33 121.88 401.17 122.86 376.8 118.8 349.65 126.97"/>
      <polygon points="325.66 135.37 282.81 124.29 283.06 123.33 325.64 134.33 337.95 130.51 320.29 124.55 312.45 124.55 312.45 123.55 320.53 123.58 341.19 130.55 325.66 135.37"/>
      <rect x="263.68" y="97.39" width="10.18" height="1" transform="translate(-11.15 39.05) rotate(-8.14)"/>
      <path d="M324.45,141.85l-.14-.04c-14.3-4-35.97-9.98-37.08-10.06l.03-1c1.32.04,32.91,8.86,37.18,10.06l53.99-15.6,19.23,4.81,47.69-7.39.15.99-47.89,7.43-19.17-4.79-54.01,15.6Z"/>
      <polygon points="326.86 150.49 282.14 138.64 273.47 125.64 257.27 117.54 257.71 116.64 274.15 124.86 282.76 137.78 326.84 149.45 379.98 132.93 380.28 133.89 326.86 150.49"/>
      <path d="M337.11,110.36l-.36-.93,20.25-7.93-13.05-1.66-25.89,9.83-34.29-.48-19.88-10.06c-15.35,2.25-38.43,5.74-39.56,6.18l-.4-.92c1.35-.6,36.02-5.7,39.97-6.28l.16-.02,19.96,10.1,33.87.48,25.95-9.85,17.19,2.18-23.91,9.35Z"/>
      <polygon points="259.88 128.8 231.29 112 261.15 107.7 278.47 114.67 361.81 115.39 375.76 110.58 375.87 110.59 435.87 118.03 435.75 119.03 375.86 111.6 361.97 116.39 278.18 115.63 261.03 108.72 234.25 112.58 260.38 127.94 259.88 128.8"/>
      <polygon points="217.01 98.62 216.85 97.64 285.4 86.57 296.97 92.11 312.95 92.59 312.92 93.59 296.63 93.06 285.26 87.61 217.01 98.62"/>
      <polygon points="345.25 209.62 344.51 208.94 365.76 185.77 392.17 182.41 399.31 175.26 398.14 166.14 399.14 166.02 400.37 175.62 392.63 183.35 366.24 186.71 345.25 209.62"/>
      <rect x="340.6" y="242.98" width="34.24" height="1" transform="translate(-71.66 189.8) rotate(-27.12)"/>
      <polygon points="310.05 288.21 309.63 287.31 375.63 255.98 379.93 228.24 380.06 228.12 410.06 199.56 410.74 200.28 380.87 228.72 376.53 256.66 376.29 256.77 310.05 288.21"/>
      <polygon points="371.39 178.53 391.24 157.22 434.44 138.02 434.84 138.94 391.74 158.1 374.05 177.15 387.6 175.21 391.8 170.78 392.52 171.46 388.08 176.15 371.39 178.53"/>
      <polygon points="330.21 258.94 329.31 258.5 340.22 236.69 354.96 233.06 379.83 211.07 380.49 211.81 355.44 233.98 340.9 237.55 330.21 258.94"/>
      <path d="M398.83,228.97l-.88-.48c.58-1.13,18.56-17.8,20.74-19.78l.33-14.29,7.53-7.25-.72,16.66,7.12-6.07.72-15.57,12.12-13.09.73.68-11.88,12.83-.72,15.63-9.2,7.85.72-16.46-5.43,5.23-.34,14.34-.21.14c-1.19.84-20.09,18.82-20.64,19.63Z"/>
      <polygon points="346.92 218.99 346.2 218.29 371.28 192.97 397.93 189.37 408.43 178.86 406.5 163.17 413.99 158.92 414.49 159.79 407.58 163.71 409.49 179.22 398.39 190.31 371.76 193.91 346.92 218.99"/>
      <rect x="402.73" y="170.62" width="63.81" height="1" transform="translate(8.32 362.03) rotate(-45.61)"/>
      <polygon points="423.35 174.08 421.37 162.45 441.96 151.4 444.01 161.9 443.03 162.1 441.24 152.92 422.47 162.99 424.33 173.92 423.35 174.08"/>
      <polygon points="319.17 262.29 318.27 261.87 333.49 229.73 352.54 225.15 377.75 198.25 402 194.41 415.88 180.3 413.47 159.33 449.02 138.29 449.53 139.15 414.53 159.86 416.92 180.66 402.48 195.35 378.25 199.19 353.06 226.05 334.19 230.59 319.17 262.29"/>
      <polygon points="385.85 251.21 389.51 233.18 390.49 233.38 387.43 248.47 437.59 203.93 456.99 163.22 457.89 163.65 438.41 204.55 438.33 204.61 385.85 251.21"/>
      <path d="M314.46,275.2l-.27-.41-.48.23q-.24-.5,9.15-5.27c5.37-2.73,12.55-6.36,19.72-9.98,13.29-6.7,26.59-13.39,28.48-14.34l3.11-19.83,20.28-19.8.7.72-20.04,19.56-3.13,20.01-.23.12c-19.38,9.74-56.28,28.33-57.29,28.99Z"/>
      <polygon points="519.05 193.84 501.92 180.56 490.07 155.91 482.34 158.87 481.98 157.93 490.57 154.65 502.72 179.92 519.67 193.04 519.05 193.84"/>
      <polygon points="537.96 176.64 506.82 168.68 495.43 152.45 496.25 151.87 507.42 167.8 538.2 175.68 537.96 176.64"/>
      <polygon points="519.49 157.24 499.32 145.43 504 130.65 504.96 130.95 500.52 144.97 519.71 156.2 546.18 152.86 546.3 153.86 519.49 157.24"/>
      <polygon points="498.52 312.96 494.15 305.18 493.18 280.72 498.73 265.98 499.67 266.34 494.18 280.88 495.13 304.9 499.4 312.47 498.52 312.96"/>
      <polygon points="485.02 239.71 484.1 239.33 491.72 220.98 481.43 157.76 482.41 157.6 492.76 221.1 485.02 239.71"/>
      <polygon points="471.6 255.75 468.44 245.52 476.61 218.37 472.55 194 473.53 193.84 477.63 218.43 477.6 218.54 469.48 245.52 472.56 255.45 471.6 255.75"/>
      <polygon points="471.12 312.36 460.04 269.51 464.86 253.98 471.86 274.8 471.86 282.72 470.86 282.72 470.86 274.88 464.9 257.22 461.08 269.53 472.08 312.11 471.12 312.36"/>
      <rect x="492.43" y="325.9" width="10.18" height="1" transform="translate(103.98 772.71) rotate(-81.86)"/>
      <path d="M463.66,307.94c-.08-1.12-6.06-22.79-10.06-37.08l-.04-.14,15.6-54.01-4.79-19.17,5.78-37.3.99.15-5.74,37.1,4.81,19.23-.04.13-15.56,53.86c1.2,4.28,10.02,35.86,10.06,37.18l-1,.03Z"/>
      <polygon points="477.87 337.9 469.77 321.7 456.77 313.03 444.92 268.31 444.96 268.17 461.52 214.89 462.48 215.19 445.96 268.33 457.64 312.41 470.55 321.02 478.77 337.46 477.87 337.9"/>
      <path d="M491.02,371.24l-.91-.41.46.2-.46-.2c.44-1.12,3.93-24.21,6.18-39.56l-10.06-19.88-.48-34.29.03-.09,9.8-25.8-1.66-13.05-7.93,20.25-.93-.36,9.35-23.91,2.18,17.19-.04.12-9.81,25.83.48,33.87,10.1,19.96-.02.16c-.58,3.95-5.68,38.62-6.28,39.97Z"/>
      <polygon points="483.41 363.88 466.61 335.29 467.47 334.79 482.83 360.92 486.69 334.14 479.74 316.8 479.02 233.2 483.81 219.31 474.94 147.9 475.94 147.78 484.83 219.41 480.02 233.36 480.74 316.7 487.71 334.02 483.41 363.88"/>
      <polygon points="497.77 378.32 496.79 378.16 507.8 309.91 502.3 298.33 501.82 282.25 502.82 282.22 503.3 298.2 508.84 309.77 497.77 378.32"/>
    </g>
    <g>
      <path d="M273.28,807.84c0-1.1-.9-2-2-2s-2,.9-2,2,.9,2,2,2,2-.9,2-2Z"/>
      <path d="M286.56,837.05c0-1.1-.9-2-2-2s-2,.9-2,2,.9,2,2,2,2-.9,2-2Z"/>
      <path d="M240.97,837.05c0-1.1-.9-2-2-2s-2,.9-2,2,.9,2,2,2,2-.9,2-2Z"/>
      <path d="M231.91,823.98c0-1.1-.9-2-2-2s-2,.9-2,2,.9,2,2,2,2-.9,2-2Z"/>
      <path d="M244.44,790.1c0-1.1-.9-2-2-2s-2,.9-2,2,.9,2,2,2,2-.9,2-2Z"/>
      <path d="M223.11,777.83c0-1.1-.9-2-2-2s-2,.9-2,2,.9,2,2,2,2-.9,2-2Z"/>
      <path d="M181.26,821.58c0-1.1-.9-2-2-2s-2,.9-2,2,.9,2,2,2,2-.9,2-2Z"/>
      <path d="M171.4,824.24c0-1.1-.9-2-2-2s-2,.9-2,2,.9,2,2,2,2-.9,2-2Z"/>
      <path d="M150.07,814.37c0-1.1-.9-2-2-2s-2,.9-2,2,.9,2,2,2,2-.9,2-2Z"/>
      <path d="M136.21,787.97c0-1.1-.9-2-2-2s-2,.9-2,2,.9,2,2,2,2-.9,2-2Z"/>
      <path d="M73.26,811.78c0-1.1-.9-2-2-2s-2,.9-2,2,.9,2,2,2,2-.9,2-2Z"/>
      <path d="M113.82,809.84c0-1.1-.9-2-2-2s-2,.9-2,2,.9,2,2,2,2-.9,2-2Z"/>
      <path d="M126.03,814.46c0-1.1-.9-2-2-2s-2,.9-2,2,.9,2,2,2,2-.9,2-2Z"/>
      <path d="M126.61,831.98c0-1.1-.9-2-2-2s-2,.9-2,2,.89,2,2,2,2-.9,2-2Z"/>
      <path d="M8.25,757.83c0-1.1-.9-2-2-2s-2,.9-2,2,.9,2,2,2,2-.9,2-2Z"/>
      <path d="M8.25,835.45c0-1.1-.9-2-2-2s-2,.9-2,2,.9,2,2,2,2-.9,2-2Z"/>
    </g>
    <g>
      <rect x="186.99" y="791.46" width="39.97" height="1" transform="translate(-499.38 378.31) rotate(-45)"/>
      <polygon points="167.46 815.13 147.27 815.13 147.27 814.13 167.05 814.13 174.51 806.66 214.23 806.66 231.29 789.59 242.43 789.59 242.43 790.59 231.71 790.59 214.65 807.66 174.93 807.66 167.46 815.13"/>
      <polygon points="57.62 844.05 29.24 815.66 14.58 815.66 -11.01 790.06 -33.4 790.06 -44.21 779.25 -43.5 778.54 -32.99 789.06 -10.6 789.06 14.99 814.66 29.65 814.66 58.32 843.35 57.62 844.05"/>
      <polygon points="284.54 837.8 264.88 837.8 251.82 824.73 229.9 824.73 229.9 823.73 252.23 823.73 265.29 836.8 284.54 836.8 284.54 837.8"/>
      <polygon points="170.19 824.73 143.06 824.73 133.7 815.37 133.7 787.96 134.7 787.96 134.7 814.96 143.47 823.73 170.19 823.73 170.19 824.73"/>
      <polygon points="262.95 849.8 214.23 849.8 201.17 836.73 133.35 836.73 124.43 845.65 123.72 844.95 132.93 835.73 201.58 835.73 214.65 848.8 262.95 848.8 262.95 849.8"/>
      <polygon points="221.04 822.06 179.25 822.06 179.25 821.06 220.63 821.06 227.29 814.4 263.81 814.4 270.12 807.97 270.84 808.67 264.23 815.4 227.71 815.4 221.04 822.06"/>
      <polygon points="238.96 837.8 217.7 837.8 202.89 822.98 203.6 822.28 218.11 836.8 238.96 836.8 238.96 837.8"/>
      <polygon points="89.63 839.67 64.69 839.67 26.82 801.77 26.82 779.63 5.9 758.71 6.61 758 27.82 779.22 27.82 801.35 65.11 838.67 89.22 838.67 95.88 832 124.61 832 124.61 833 96.29 833 89.63 839.67"/>
      <polygon points="82.7 825.53 51.84 825.53 51.84 824.53 82.29 824.53 97.48 809.33 111.01 809.33 111.01 810.33 97.89 810.33 82.7 825.53"/>
      <polygon points="124.44 814.42 123.44 814.42 123.44 798.88 116 791.44 106.54 791.44 96.94 801.04 82.8 801.04 72.01 811.84 71.3 811.13 82.39 800.04 96.53 800.04 106.13 790.44 116.42 790.44 124.44 798.47 124.44 814.42"/>
      <polygon points="35.49 845.12 26.57 836.2 5.46 836.2 5.46 835.2 26.99 835.2 36.2 844.41 35.49 845.12"/>
    </g>
    <g>
      <path d="M370.89,791.65c-1.1,0-2,.9-2,2s.9,2,2,2,2-.9,2-2-.9-2-2-2Z"/>
      <path d="M381.29,741.54c-1.1,0-2,.9-2,2s.9,2,2,2,2-.9,2-2-.9-2-2-2Z"/>
      <path d="M432.22,819.38c-1.1,0-2,.9-2,2s.9,2,2,2,2-.9,2-2-.9-2-2-2Z"/>
      <path d="M507.96,833.24c-1.1,0-2,.9-2,2s.9,2,2,2,2-.9,2-2-.9-2-2-2Z"/>
      <path d="M518.09,824.17c-1.1,0-2,.9-2,2s.9,2,2,2,2-.9,2-2-.9-2-2-2Z"/>
      <path d="M580.5,837.77c-1.1,0-2,.9-2,2s.9,2,2,2,2-.89,2-2-.9-2-2-2Z"/>
      <path d="M580.5,821.51c-1.1,0-2,.89-2,2s.9,2,2,2,2-.9,2-2-.9-2-2-2Z"/>
      <path d="M551.96,802.58c-1.1,0-2,.9-2,2s.9,2,2,2,2-.89,2-2-.9-2-2-2Z"/>
      <path d="M563.7,812.45c-1.1,0-2,.9-2,2s.9,2,2,2,2-.89,2-2-.9-2-2-2Z"/>
      <path d="M572.76,791.65c-1.1,0-2,.9-2,2s.9,2,2,2,2-.9,2-2-.9-2-2-2Z"/>
      <path d="M547.69,765.27c-1.1,0-2,.9-2,2s.9,2,2,2,2-.89,2-2-.9-2-2-2Z"/>
      <path d="M537.83,764.2c-1.1,0-2,.9-2,2s.9,2,2,2,2-.89,2-2-.9-2-2-2Z"/>
      <path d="M560.76,770.06c-1.1,0-2,.89-2,2s.9,2,2,2,2-.9,2-2-.9-2-2-2Z"/>
      <path d="M546.36,744.47c-1.1,0-2,.9-2,2s.9,2,2,2,2-.9,2-2-.9-2-2-2Z"/>
      <path d="M563.16,747.67c-1.1,0-2,.89-2,2s.9,2,2,2,2-.9,2-2-.9-2-2-2Z"/>
      <path d="M528.76,739.14c-1.1,0-2,.89-2,2s.9,2,2,2,2-.9,2-2-.9-2-2-2Z"/>
      <path d="M552.49,684.23c-1.1,0-2,.89-2,2s.9,2,2,2,2-.9,2-2-.9-2-2-2Z"/>
      <path d="M563.16,717.02c-1.1,0-2,.89-2,2s.9,2,2,2,2-.89,2-2-.9-2-2-2Z"/>
      <path d="M563.16,700.76c-1.1,0-2,.89-2,2s.9,2,2,2,2-.89,2-2-.9-2-2-2Z"/>
      <path d="M531.96,394.23c-1.1,0-2,.89-2,2s.9,2,2,2,2-.89,2-2-.9-2-2-2Z"/>
      <path d="M567.16,386.23c-1.1,0-2,.89-2,2s.9,2,2,2,2-.89,2-2-.9-2-2-2Z"/>
      <path d="M579.43,407.82c-1.1,0-2,.89-2,2s.9,2,2,2,2-.89,2-2-.9-2-2-2Z"/>
      <path d="M567.16,431.81c-1.1,0-2,.89-2,2s.9,2,2,2,2-.89,2-2-.9-2-2-2Z"/>
      <path d="M554.09,440.87c-1.1,0-2,.89-2,2s.9,2,2,2,2-.89,2-2-.9-2-2-2Z"/>
      <path d="M520.23,428.35c-1.1,0-2,.89-2,2s.9,2,2,2,2-.9,2-2-.9-2-2-2Z"/>
      <path d="M507.96,449.67c-1.1,0-2,.89-2,2s.9,2,2,2,2-.89,2-2-.9-2-2-2Z"/>
      <path d="M587.43,492.05c-1.1,0-2,.89-2,2s.9,2,2,2,2-.89,2-2-.9-2-2-2Z"/>
      <path d="M551.69,491.52c-1.1,0-2,.9-2,2s.9,2,2,2,2-.89,2-2-.9-2-2-2Z"/>
      <path d="M554.36,501.38c-1.1,0-2,.9-2,2s.9,2,2,2,2-.9,2-2-.9-2-2-2Z"/>
      <path d="M544.49,522.7c-1.1,0-2,.9-2,2s.9,2,2,2,2-.9,2-2-.9-2-2-2Z"/>
      <path d="M518.09,536.57c-1.1,0-2,.89-2,2s.9,2,2,2,2-.9,2-2-.9-2-2-2Z"/>
      <path d="M497.03,566.15c-1.1,0-2,.89-2,2s.9,2,2,2,2-.89,2-2-.9-2-2-2Z"/>
      <path d="M539.96,558.96c-1.1,0-2,.9-2,2s.9,2,2,2,2-.9,2-2-.9-2-2-2Z"/>
      <path d="M550.09,568.82c-1.1,0-2,.9-2,2s.9,2,2,2,2-.89,2-2-.9-2-2-2Z"/>
      <path d="M562.1,546.16c-1.1,0-2,.89-2,2s.9,2,2,2,2-.89,2-2-.9-2-2-2Z"/>
      <path d="M574.63,546.16c-1.1,0-2,.89-2,2s.9,2,2,2,2-.89,2-2-.9-2-2-2Z"/>
      <path d="M574.63,559.22c-1.1,0-2,.9-2,2s.9,2,2,2,2-.89,2-2-.9-2-2-2Z"/>
      <path d="M573.83,612.8c-1.1,0-2,.89-2,2s.9,2,2,2,2-.89,2-2-.9-2-2-2Z"/>
      <path d="M487.96,664.51c-1.1,0-2,.89-2,2s.9,2,2,2,2-.89,2-2-.9-2-2-2Z"/>
      <path d="M575.7,634.92c-1.1,0-2,.9-2,2s.9,2,2,2,2-.9,2-2-.9-2-2-2Z"/>
      <path d="M565.56,664.51c-1.1,0-2,.89-2,2s.9,2,2,2,2-.89,2-2-.9-2-2-2Z"/>
      <path d="M568.5,678.37c-1.1,0-2,.89-2,2s.9,2,2,2,2-.9,2-2-.9-2-2-2Z"/>
      <path d="M509.03,714.89c-1.1,0-2,.89-2,2s.9,2,2,2,2-.89,2-2-.9-2-2-2Z"/>
      <path d="M498.63,722.88c-1.1,0-2,.89-2,2s.9,2,2,2,2-.9,2-2-.9-2-2-2Z"/>
      <path d="M455.16,726.88c-1.1,0-2,.89-2,2s.9,2,2,2,2-.89,2-2-.9-2-2-2Z"/>
      <path d="M461.82,701.29c-1.1,0-2,.89-2,2s.9,2,2,2,2-.89,2-2-.9-2-2-2Z"/>
      <path d="M274.35,790.07c-1.1,0-2,.9-2,2s.9,2,2,2,2-.9,2-2-.9-2-2-2Z"/>
      <path d="M256.93,801.62c-1.1,0-2,.9-2,2s.9,2,2,2,2-.9,2-2-.9-2-2-2Z"/>
      <path d="M424.22,737.54c-1.1,0-2,.89-2,2s.9,2,2,2,2-.89,2-2-.9-2-2-2Z"/>
      <path d="M417.29,758.6c-1.1,0-2,.9-2,2s.9,2,2,2,2-.9,2-2-.9-2-2-2Z"/>
      <path d="M426.62,752.47c-1.1,0-2,.9-2,2s.9,2,2,2,2-.9,2-2-.9-2-2-2Z"/>
      <path d="M490.09,733.81c-1.1,0-2,.89-2,2s.9,2,2,2,2-.89,2-2-.9-2-2-2Z"/>
      <path d="M504.49,747.14c-1.1,0-2,.9-2,2s.9,2,2,2,2-.9,2-2-.9-2-2-2Z"/>
      <path d="M473.56,747.14c-1.1,0-2,.9-2,2s.9,2,2,2,2-.9,2-2-.9-2-2-2Z"/>
      <path d="M463.96,758.34c-1.1,0-2,.9-2,2s.9,2,2,2,2-.89,2-2-.9-2-2-2Z"/>
      <path d="M430.62,773.26c-1.1,0-2,.9-2,2s.9,2,2,2,2-.9,2-2-.9-2-2-2Z"/>
      <path d="M417.29,786.59c-1.1,0-2,.9-2,2s.9,2,2,2,2-.89,2-2-.9-2-2-2Z"/>
      <path d="M513.56,817.24c-1.1,0-2,.89-2,2s.9,2,2,2,2-.9,2-2-.9-2-2-2Z"/>
      <path d="M405.02,835.37c-1.1,0-2,.9-2,2s.9,2,2,2,2-.89,2-2-.9-2-2-2Z"/>
      <path d="M370.35,836.43c-1.1,0-2,.9-2,2s.9,2,2,2,2-.9,2-2-.9-2-2-2Z"/>
      <path d="M380.75,825.51c-1.1,0-2,.9-2,2s.9,2,2,2,2-.89,2-2-.9-2-2-2Z"/>
      <path d="M371.95,809.25c-1.1,0-2,.89-2,2s.9,2,2,2,2-.9,2-2-.9-2-2-2Z"/>
      <path d="M354.35,756.2c-1.1,0-2,.9-2,2s.9,2,2,2,2-.9,2-2-.9-2-2-2Z"/>
      <path d="M342.62,805.78c-1.1,0-2,.9-2,2s.9,2,2,2,2-.9,2-2-.9-2-2-2Z"/>
      <path d="M337.28,799.65c-1.1,0-2,.9-2,2s.9,2,2,2,2-.9,2-2-.9-2-2-2Z"/>
      <path d="M305.55,784.46c-1.1,0-2,.9-2,2s.9,2,2,2,2-.9,2-2-.9-2-2-2Z"/>
      <path d="M344.48,754.34c-1.1,0-2,.9-2,2s.9,2,2,2,2-.89,2-2-.9-2-2-2Z"/>
    </g>
    <g>
      <polygon points="594.68 866.64 569.46 841.44 569.46 820.77 593.08 797.16 593.78 797.87 570.46 821.18 570.46 841.03 595.38 865.94 594.68 866.64"/>
      <rect x="580.13" y="823.37" width="1" height="15.73"/>
      <polygon points="564.98 814.13 564.28 813.42 582.26 795.45 582.26 768.26 599.74 750.79 600.45 751.49 583.26 768.67 583.26 795.86 564.98 814.13"/>
      <polygon points="573.4 793.52 572.4 793.52 572.4 762.39 580.13 754.66 580.13 733.81 581.13 733.81 581.13 755.08 573.4 762.81 573.4 793.52"/>
      <polygon points="508.09 835.87 465.48 835.87 451.08 821.48 432.36 821.48 432.36 820.48 451.5 820.48 465.9 834.87 508.09 834.87 508.09 835.87"/>
      <polygon points="415.16 868.98 414.35 868.39 421.97 858.06 533.46 858.06 533.46 842.77 518.41 827.73 519.11 827.02 534.46 842.36 534.46 859.06 422.47 859.06 415.16 868.98"/>
      <polygon points="528.98 741.36 528.27 740.66 552.13 716.81 552.13 687.97 553.13 687.97 553.13 717.23 528.98 741.36"/>
      <polygon points="552.45 804.8 551.74 804.1 560.13 795.71 560.13 771.66 561.13 771.66 561.13 796.13 552.45 804.8"/>
      <polygon points="581.61 867.98 554.79 841.17 554.79 821.18 531.65 798.05 547.06 782.65 547.06 767.13 548.06 767.13 548.06 783.07 533.07 798.05 555.79 820.77 555.79 840.76 582.32 867.27 581.61 867.98"/>
      <polygon points="547.38 746.69 546.67 745.99 561.75 730.91 580.63 730.91 580.63 731.91 562.17 731.91 547.38 746.69"/>
      <polygon points="561.61 868.24 545.73 852.37 545.73 831.58 520.15 806.02 485.69 806.02 485.69 805.02 520.57 805.02 546.73 831.16 546.73 851.95 562.32 867.53 561.61 868.24"/>
      <polygon points="363.37 820.8 339.49 820.8 305.21 786.53 305.92 785.83 339.9 819.8 362.95 819.8 371.87 810.88 372.58 811.59 363.37 820.8"/>
      <polygon points="336.14 801.46 323.46 788.78 323.46 776.64 343.34 756.77 344.05 757.48 324.46 777.06 324.46 788.37 336.85 800.75 336.14 801.46"/>
      <polygon points="342.98 864.63 342.27 863.92 350.66 855.54 350.66 842.21 376.79 816.09 376.79 800.1 416.67 760.24 417.38 760.95 377.79 800.51 377.79 816.5 351.66 842.62 351.66 855.95 342.98 864.63"/>
      <polygon points="372.58 792.66 371.87 791.96 392.52 771.31 392.52 755.2 381.2 743.89 381.91 743.18 393.52 754.79 393.52 771.73 372.58 792.66"/>
      <polygon points="496.16 767.22 480.55 767.22 473.05 759.73 473.05 749.66 474.05 749.66 474.05 759.32 480.96 766.22 495.75 766.22 512.13 749.84 512.84 750.55 496.16 767.22"/>
      <polygon points="455.77 728.96 455.07 728.25 469.35 713.98 487.63 713.98 498.97 725.32 498.27 726.03 487.21 714.98 469.76 714.98 455.77 728.96"/>
      <rect x="521.58" y="445.83" width="1" height="39.96" transform="translate(-176.45 505.76) rotate(-45.01)"/>
      <polygon points="556.42 756.56 506.08 756.56 506.08 755.56 556.01 755.56 562.26 749.31 562.97 750.02 556.42 756.56"/>
      <polygon points="545.25 525.51 544.25 525.51 544.25 505.73 536.78 498.26 536.78 458.55 519.72 441.49 519.72 430.36 520.72 430.36 520.72 441.08 537.78 458.14 537.78 497.85 545.25 505.31 545.25 525.51"/>
      <polygon points="509.37 716.97 508.67 716.26 519.18 705.75 519.18 683.36 544.78 657.77 544.78 643.11 573.46 614.45 574.17 615.15 545.78 643.52 545.78 658.18 520.18 683.77 520.18 706.16 509.37 716.97"/>
      <polygon points="554.85 442.89 553.85 442.89 553.85 420.56 566.92 407.5 566.92 388.25 567.92 388.25 567.92 407.91 554.85 420.97 554.85 442.89"/>
      <polygon points="545.49 539.07 518.08 539.07 518.08 538.07 545.08 538.07 553.85 529.3 553.85 502.59 554.85 502.59 554.85 529.72 545.49 539.07"/>
      <rect x="586.91" y="494.06" width="1" height="19.99"/>
      <polygon points="575.06 549.05 565.85 539.84 565.85 471.2 578.92 458.14 578.92 409.84 579.92 409.84 579.92 458.55 566.85 471.61 566.85 539.43 575.77 548.35 575.06 549.05"/>
      <polygon points="592.39 575.97 582.91 566.5 582.91 530.25 574.92 522.25 574.92 486.39 585.58 475.73 585.58 446.88 586.58 446.88 586.58 476.14 575.92 486.8 575.92 521.84 583.91 529.83 583.91 566.08 593.1 575.27 592.39 575.97"/>
      <polygon points="552.18 493.53 551.18 493.53 551.18 452.15 544.52 445.49 544.52 408.98 532.13 396.6 532.84 395.89 545.52 408.56 545.52 445.08 552.18 451.74 552.18 493.53"/>
      <polygon points="553.1 469.89 552.4 469.19 566.92 454.67 566.92 433.82 567.92 433.82 567.92 455.09 553.1 469.89"/>
      <polygon points="488.84 666.86 488.13 666.15 509.34 644.95 531.48 644.95 568.78 607.66 568.78 583.56 562.12 576.89 562.12 548.17 563.12 548.17 563.12 576.48 569.78 583.14 569.78 608.08 531.89 645.95 509.76 645.95 488.84 666.86"/>
      <polygon points="555.65 620.93 554.65 620.93 554.65 590.48 539.45 575.29 539.45 561.76 540.45 561.76 540.45 574.88 555.65 590.07 555.65 620.93"/>
      <polygon points="550.32 570.82 549.32 570.82 549.32 555.3 541.88 547.87 532.42 547.87 522.82 557.46 508.69 557.46 497.91 568.24 497.2 567.54 508.28 556.46 522.41 556.46 532.01 546.87 542.29 546.87 550.32 554.89 550.32 570.82"/>
      <polygon points="566.32 667.31 565.32 667.31 565.32 645.78 574.53 636.57 575.24 637.27 566.32 646.19 566.32 667.31"/>
      <polygon points="582.02 719.51 563.15 719.51 563.15 718.51 581.61 718.51 597.46 702.67 598.17 703.37 582.02 719.51"/>
      <polygon points="564.57 701.78 563.86 701.07 578.92 686.02 578.92 656.7 586.91 648.71 586.91 593.42 573.85 580.36 573.85 560.16 574.85 560.16 574.85 579.94 587.91 593 587.91 649.12 579.92 657.12 579.92 686.44 564.57 701.78"/>
      <polygon points="504.99 749.13 503.99 749.13 503.99 733.47 537.58 699.88 537.58 684.16 548.81 672.94 561.49 672.94 569.1 680.55 568.4 681.25 561.08 673.94 549.22 673.94 538.58 684.57 538.58 700.3 504.99 733.88 504.99 749.13"/>
      <polygon points="427.24 754.55 426.54 753.84 444.79 735.6 444.79 719.34 460.93 703.2 461.64 703.91 445.79 719.75 445.79 736.01 427.24 754.55"/>
      <rect x="400.08" y="749.03" width="28.28" height="1" transform="translate(-408.68 512.43) rotate(-45)"/>
      <polygon points="381.65 827.58 380.94 826.87 394.39 813.42 394.39 794.5 429.88 759.03 448.81 759.03 472.28 735.57 490.09 735.57 490.09 736.57 472.69 736.57 449.23 760.03 430.3 760.03 395.39 794.91 395.39 813.84 381.65 827.58"/>
      <polygon points="449.5 775.75 431.42 775.75 431.42 774.75 449.08 774.75 463.6 760.24 464.31 760.95 449.5 775.75"/>
      <polygon points="463.63 789.08 417.29 789.08 417.29 788.08 463.21 788.08 470.15 781.15 511.48 781.15 526.94 765.69 538.08 765.69 538.08 766.69 527.36 766.69 511.89 782.15 470.56 782.15 463.63 789.08"/>
      <polygon points="359.37 808.8 342.63 808.8 342.63 807.8 358.95 807.8 364.53 802.23 364.53 772.38 370.98 765.92 363.49 758.43 354.09 758.43 354.09 757.43 363.9 757.43 372.4 765.92 365.53 772.79 365.53 802.64 359.37 808.8"/>
      <polygon points="361.91 860.1 361.21 859.39 369.86 850.74 369.86 838.69 370.86 838.69 370.86 851.15 361.91 860.1"/>
      <polygon points="312.46 861.35 311.46 861.35 311.46 850.9 286.93 826.38 286.93 805.32 274.01 792.41 274.72 791.7 287.93 804.91 287.93 825.96 312.46 850.48 312.46 861.35"/>
      <polygon points="334.98 886.76 334.27 886.05 341.06 879.27 341.06 858.89 296.53 814.38 296.53 799.99 278.72 782.18 266.3 782.18 257.78 790.7 257.78 804.72 256.78 804.72 256.78 790.29 265.89 781.18 279.13 781.18 297.53 799.58 297.53 813.97 342.06 858.48 342.06 879.68 334.98 886.76"/>
      <polygon points="381.11 847.57 380.4 846.86 403.19 824.09 403.19 815.56 415.48 803.27 471.09 803.27 486.56 818.73 513.02 818.73 513.02 819.73 486.15 819.73 470.68 804.27 415.9 804.27 404.19 815.97 404.19 824.5 381.11 847.57"/>
      <polygon points="407.51 853.17 406.8 852.46 414.12 845.14 414.12 821.69 430.54 805.28 431.24 805.99 415.12 822.1 415.12 845.56 407.51 853.17"/>
      <polygon points="397.47 862.76 392.26 857.55 392.26 849.14 403.87 837.53 404.58 838.24 393.26 849.55 393.26 857.14 398.18 862.05 397.47 862.76"/>
    </g>
    <g>
      <path d="M79.72,38.23c1.1,0,2-.89,2-2s-.9-2-2-2-2,.89-2,2,.9,2,2,2Z"/>
      <path d="M69.33,88.33c1.1,0,2-.89,2-2s-.9-2-2-2-2,.89-2,2,.9,2,2,2Z"/>
      <path d="M18.41,10.52c1.1,0,2-.89,2-2s-.9-2-2-2-2,.89-2,2,.9,2,2,2Z"/>
      <path d="M176.23,63.81c1.1,0,2-.89,2-2s-.9-2-2-2-2,.89-2,2,.9,2,2,2Z"/>
      <path d="M184.76,87.53c1.1,0,2-.89,2-2s-.9-2-2-2-2,.89-2,2,.9,2,2,2Z"/>
      <path d="M26.41,92.33c1.1,0,2-.89,2-2s-.9-2-2-2-2,.89-2,2,.9,2,2,2Z"/>
      <path d="M33.34,71.28c1.1,0,2-.89,2-2s-.9-2-2-2-2,.89-2,2,.9,2,2,2Z"/>
      <path d="M24.01,77.4c1.1,0,2-.89,2-2s-.9-2-2-2-2,.89-2,2,.9,2,2,2Z"/>
      <path d="M20.01,56.62c1.1,0,2-.89,2-2s-.9-2-2-2-2,.89-2,2,.9,2,2,2Z"/>
      <path d="M33.34,43.29c1.1,0,2-.89,2-2s-.9-2-2-2-2,.89-2,2,.9,2,2,2Z"/>
      <path d="M69.86,4.39c1.1,0,2-.89,2-2s-.9-2-2-2-2,.89-2,2,.9,2,2,2Z"/>
      <path d="M78.66,20.64c1.1,0,2-.89,2-2s-.9-2-2-2-2,.89-2,2,.9,2,2,2Z"/>
      <path d="M96.25,73.67c1.1,0,2-.89,2-2s-.9-2-2-2-2,.89-2,2,.9,2,2,2Z"/>
      <path d="M107.98,24.11c1.1,0,2-.89,2-2s-.9-2-2-2-2,.89-2,2,.9,2,2,2Z"/>
      <path d="M113.31,30.24c1.1,0,2-.89,2-2s-.9-2-2-2-2,.89-2,2,.9,2,2,2Z"/>
      <path d="M145.04,45.43c1.1,0,2-.89,2-2s-.9-2-2-2-2,.89-2,2,.9,2,2,2Z"/>
      <path d="M106.12,75.54c1.1,0,2-.89,2-2s-.9-2-2-2-2,.89-2,2,.9,2,2,2Z"/>
    </g>
    <g>
      <polygon points="18.28 9.42 -.86 9.42 -15.25 -4.97 -57.43 -4.97 -57.43 -5.97 -14.84 -5.97 -.44 8.42 18.28 8.42 18.28 9.42"/>
      <polygon points="144.67 44.06 110.7 10.1 87.66 10.1 78.74 19.01 78.03 18.3 87.24 9.1 111.11 9.1 145.38 43.35 144.67 44.06"/>
      <polygon points="107.26 73.1 106.55 72.4 126.13 52.82 126.13 41.51 113.75 29.14 114.46 28.43 127.13 41.1 127.13 53.24 107.26 73.1"/>
      <polygon points="33.96 69.64 33.25 68.93 72.82 29.38 72.82 13.39 98.94 -12.73 98.94 -26.05 107.62 -34.72 108.33 -34.02 99.94 -25.64 99.94 -12.31 73.82 13.8 73.82 29.79 73.67 29.94 33.96 69.64"/>
      <polygon points="68.7 86.69 57.09 75.09 57.09 58.15 78.03 37.22 78.74 37.93 58.09 58.57 58.09 74.68 69.41 85.99 68.7 86.69"/>
      <polygon points="-10.29 126.66 -11 125.96 4.85 110.12 4.85 93.86 23.39 75.33 24.09 76.04 5.85 94.28 5.85 110.53 -10.29 126.66"/>
      <rect x="22.27" y="79.84" width="28.27" height="1" transform="translate(-46.15 49.27) rotate(-45)"/>
      <polygon points="-21.63 94.3 -39.43 94.3 -39.43 93.3 -22.05 93.3 1.41 69.85 20.33 69.85 55.23 34.97 55.23 16.05 68.97 2.32 69.68 3.02 56.23 16.47 56.23 35.39 20.75 70.85 1.82 70.85 -21.63 94.3"/>
      <polygon points="-12.96 69.64 -13.66 68.93 1.14 54.13 19.21 54.13 19.21 55.13 1.56 55.13 -12.96 69.64"/>
      <polygon points="-76.28 64.19 -87.42 64.19 -87.42 63.19 -76.69 63.19 -61.23 47.74 -19.92 47.74 -12.99 40.81 33.34 40.81 33.34 41.81 -12.57 41.81 -19.5 48.74 -60.82 48.74 -76.28 64.19"/>
      <polygon points="96.51 72.45 86.71 72.45 78.21 63.96 85.08 57.09 85.08 27.24 91.24 21.09 107.97 21.09 107.97 22.09 91.65 22.09 86.08 27.66 86.08 57.5 79.63 63.96 87.12 71.45 96.51 71.45 96.51 72.45"/>
      <polygon points="175.86 62.18 162.65 48.98 162.65 27.92 138.13 3.41 138.13 -7.46 139.13 -7.46 139.13 3 163.65 27.51 163.65 48.56 176.57 61.47 175.86 62.18"/>
      <polygon points="184.39 85.63 153.06 54.3 153.06 39.92 108.54 -4.58 108.54 -25.78 115.62 -32.86 116.32 -32.15 109.54 -25.37 109.54 -5 154.06 39.5 154.06 53.89 185.1 84.92 184.39 85.63"/>
      <polygon points="35.14 26.62 -20.45 26.62 -35.91 11.16 -62.36 11.16 -62.36 10.16 -35.5 10.16 -20.03 25.62 34.73 25.62 46.43 13.92 46.43 5.39 69.5 -17.67 70.21 -16.96 47.43 5.81 47.43 14.33 35.14 26.62"/>
      <polygon points="20.1 24.61 19.39 23.9 35.5 7.79 35.5 -15.66 43.11 -23.26 43.82 -22.56 36.5 -15.24 36.5 8.21 20.1 24.61"/>
    </g>
</svg>
